<?xml version="1.0" encoding="UTF-8"?>
<svg xmlns="http://www.w3.org/2000/svg" viewBox="0 0 1000 1000">
  <defs>
    <style>
      .cls-1 {
        fill: lime;
      }

      .cls-1, .cls-2, .cls-3, .cls-4, .cls-5 {
        fill-rule: evenodd;
      }

      .cls-2 {
        fill: #fff;
      }

      .cls-3 {
        fill: #0b65ba;
      }

      .cls-4 {
        fill: gray;
      }

      .cls-5 {
        fill: #033382;
      }
    </style>
  </defs>
  <g id="Artboard_1" data-name="Artboard 1">
    <path class="cls-4" d="m826.23,888.9c-.78.01-1.51.2-2.19.57-.68.38-1.25.88-1.71,1.52-.46.62-.74,1.32-.85,2.11-.11.78-.01,1.47.3,2.09.28.64.73,1.14,1.29,1.52.59.36,1.24.55,1.97.57.74-.01,1.45-.2,2.13-.57.68-.38,1.28-.88,1.77-1.52.48-.62.79-1.32.92-2.09.08-.79-.01-1.48-.29-2.11-.3-.64-.73-1.14-1.31-1.52-.57-.36-1.25-.55-2.03-.57Zm-19.4,0c-.78.01-1.51.2-2.18.57-.7.38-1.26.88-1.71,1.52-.47.62-.75,1.32-.86,2.11-.09.78-.01,1.47.3,2.09.3.64.73,1.14,1.31,1.52.58.36,1.22.55,1.97.57.73-.01,1.44-.2,2.12-.57.7-.38,1.28-.88,1.78-1.52.47-.62.79-1.32.92-2.09.08-.79-.01-1.48-.31-2.11-.3-.64-.72-1.14-1.31-1.52-.56-.36-1.24-.55-2.02-.57Zm-19.39,0c-.78.01-1.52.2-2.19.57-.68.38-1.26.88-1.71,1.52-.47.62-.74,1.32-.85,2.11-.11.78-.01,1.47.29,2.09.28.64.73,1.14,1.3,1.52.59.36,1.24.55,1.97.57.73-.01,1.45-.2,2.13-.57.68-.38,1.27-.88,1.77-1.52.47-.62.79-1.32.92-2.09.08-.79-.01-1.48-.3-2.11-.28-.64-.72-1.14-1.3-1.52-.58-.36-1.25-.55-2.03-.57Zm-38.24,2.72c.84,1.52,1.81,2.73,2.96,3.61,1.13.9,2.43,1.53,3.9,1.91,1.45.38,3.11.56,4.95.55,1.64,0,3.25-.19,4.86-.56,1.59-.38,3.07-.98,4.44-1.8,1.34-.81,2.49-1.87,3.41-3.17.92-1.31,1.52-2.87,1.79-4.73.22-1.62.12-3-.27-4.13-.41-1.13-1.05-2.06-1.93-2.79-.87-.73-1.92-1.32-3.14-1.77-1.21-.45-2.52-.81-3.93-1.07-1.07-.21-2.08-.45-3.04-.72-.94-.26-1.78-.59-2.48-.95-.72-.36-1.27-.8-1.64-1.31-.38-.51-.53-1.09-.45-1.77.12-.77.4-1.45.86-2,.46-.58,1.02-1.05,1.69-1.42.68-.36,1.41-.65,2.19-.84.78-.19,1.54-.28,2.31-.28,1.6.01,2.93.39,3.99,1.09,1.03.72,1.84,1.65,2.35,2.82l5.03-2.99c-.58-1.4-1.38-2.53-2.4-3.4-1.04-.87-2.21-1.52-3.58-1.93-1.35-.4-2.8-.6-4.34-.6s-3.05.2-4.56.61c-1.49.41-2.88,1.01-4.14,1.81-1.28.81-2.34,1.81-3.2,3.01-.85,1.2-1.39,2.59-1.64,4.19-.24,1.67-.12,3.05.33,4.13.46,1.08,1.17,1.95,2.14,2.63.98.66,2.13,1.19,3.46,1.61,1.32.4,2.74.78,4.25,1.12.85.18,1.67.39,2.47.64.79.25,1.49.54,2.11.92.62.38,1.09.85,1.4,1.44.32.58.41,1.31.31,2.16-.15.88-.49,1.65-1,2.3-.52.62-1.15,1.15-1.91,1.56-.77.41-1.58.69-2.45.9-.87.19-1.74.28-2.6.28-1.27,0-2.38-.19-3.32-.54-.93-.37-1.75-.88-2.46-1.54-.71-.65-1.38-1.43-1.97-2.31l-4.75,3.35Zm-56.59,5.24h5.45l2.22-15.92c.35-2.51,1-4.7,1.98-6.57.97-1.88,2.27-3.34,3.91-4.39,1.64-1.05,3.63-1.59,5.98-1.6,1.48-.01,2.65.32,3.48.99.83.68,1.37,1.74,1.6,3.21.21,1.47.14,3.39-.2,5.78l-2.59,18.5h5.45l2.65-18.85c.22-1.46.62-2.79,1.24-3.97.6-1.19,1.34-2.2,2.24-3.04.88-.85,1.87-1.49,2.94-1.94,1.07-.45,2.19-.68,3.35-.68,1.58.01,2.85.27,3.82.77.96.49,1.68,1.15,2.14,2.01.49.83.77,1.79.86,2.85.08,1.06.05,2.16-.12,3.31l-2.72,19.54h5.44l2.79-19.83c.3-2.11.36-4,.17-5.7-.2-1.68-.71-3.11-1.49-4.3-.8-1.19-1.95-2.09-3.46-2.72-1.51-.64-3.43-.95-5.76-.95-1.64,0-3.13.25-4.44.75-1.33.49-2.53,1.21-3.64,2.14-1.08.92-2.12,2.02-3.09,3.31-.17-.56-.46-1.2-.81-1.92-.36-.69-.9-1.37-1.58-2.02-.68-.65-1.6-1.18-2.76-1.62-1.15-.41-2.59-.63-4.34-.64-1.8.01-3.47.3-5.02.89-1.53.58-2.87,1.33-4.03,2.27-1.15.93-2.05,1.94-2.69,3.04h-.14c.13-.91.24-1.81.32-2.71.08-.91.19-1.79.31-2.66h-5.16c-.17,1.08-.3,2.27-.4,3.56-.09,1.29-.24,2.68-.44,4.19l-3.5,24.91Zm-13.19-15.71l-.34,2.09c-.21,1.33-.61,2.59-1.18,3.78-.58,1.18-1.34,2.22-2.26,3.13-.93.91-2.03,1.61-3.27,2.13-1.26.53-2.68.79-4.25.8-1.38.01-2.59-.18-3.61-.55-1.02-.38-1.79-.98-2.31-1.81-.49-.83-.67-1.93-.49-3.3.22-1.46.86-2.65,1.93-3.58,1.06-.93,2.47-1.6,4.23-2.05,1.78-.44,3.8-.65,6.12-.65h5.44Zm-16.53-9.21c.99-.79,2.05-1.46,3.17-1.98,1.13-.53,2.28-.92,3.48-1.19,1.18-.27,2.37-.4,3.53-.4,2.56,0,4.46.61,5.71,1.82,1.24,1.2,1.71,2.99,1.4,5.37l-.13.98h-2.09c-1.35-.01-2.79.02-4.33.09-1.52.07-3.07.24-4.65.46-1.56.25-3.07.62-4.55,1.11-1.46.51-2.8,1.17-4.01,2.01-1.2.84-2.21,1.9-3.04,3.17-.8,1.27-1.34,2.82-1.62,4.6-.21,1.59-.09,2.99.37,4.19.46,1.21,1.18,2.22,2.18,3.04,1,.81,2.2,1.43,3.6,1.84,1.4.43,2.94.64,4.6.64,1.65-.01,3.19-.26,4.61-.75,1.41-.47,2.72-1.14,3.88-1.99,1.18-.87,2.2-1.86,3.09-2.98h.14c-.07.47-.14.99-.21,1.55-.07.57-.13,1.14-.15,1.72-.03.58-.03,1.11.01,1.61h5.23c-.04-.86-.02-1.78.03-2.75.06-.98.14-1.94.25-2.9l2.03-14.03c.44-3.07.32-5.63-.36-7.68-.66-2.05-1.94-3.58-3.81-4.61-1.87-1.02-4.42-1.53-7.62-1.53-1.59,0-3.18.17-4.8.54-1.6.36-3.16.91-4.67,1.65-1.51.75-2.91,1.7-4.19,2.83l2.93,3.57Zm-38.59,5.65c.51-1.85,1.31-3.47,2.41-4.84,1.11-1.38,2.47-2.45,4.08-3.22,1.61-.77,3.43-1.15,5.44-1.16,2,.01,3.67.4,5,1.16,1.35.77,2.32,1.84,2.93,3.22.61,1.37.82,2.99.65,4.84h-20.52Zm19.62,10.11c-1.48,1.64-3.12,2.87-4.92,3.71-1.79.83-3.85,1.25-6.18,1.25-1.48-.01-2.81-.29-3.99-.83-1.17-.57-2.15-1.32-2.97-2.28-.8-.96-1.39-2.07-1.77-3.32-.38-1.26-.52-2.6-.41-4.03h26.37l.21-1.75c.38-2.71.34-5.12-.11-7.24-.46-2.11-1.26-3.91-2.41-5.37-1.18-1.46-2.66-2.58-4.45-3.33-1.79-.77-3.84-1.15-6.15-1.15-2.43.01-4.71.42-6.85,1.25-2.15.85-4.08,2.01-5.79,3.54-1.72,1.52-3.14,3.32-4.26,5.42-1.11,2.1-1.86,4.42-2.21,6.96-.33,2.38-.26,4.61.2,6.69.46,2.07,1.3,3.89,2.51,5.45,1.2,1.57,2.76,2.79,4.67,3.67,1.91.88,4.14,1.34,6.71,1.35,2.03.01,3.92-.21,5.71-.66,1.78-.43,3.49-1.15,5.1-2.15,1.61-.99,3.18-2.32,4.68-3.96l-3.7-3.21Zm-49.61,9.15h5.44l2.24-15.92c.34-2.5.99-4.65,1.92-6.46.94-1.81,2.18-3.21,3.74-4.19,1.54-.98,3.42-1.47,5.64-1.48.48,0,.98.04,1.45.11.49.07.96.18,1.41.32l1.12-5.52c-.39-.14-.78-.22-1.14-.27-.39-.05-.74-.07-1.09-.07-1.8.01-3.46.3-5.02.89-1.53.58-2.87,1.33-4.03,2.27-1.14.93-2.05,1.94-2.69,3.04h-.14c.13-.91.24-1.81.32-2.71.08-.91.19-1.79.32-2.66h-5.17c-.17,1.08-.3,2.27-.39,3.56-.1,1.29-.25,2.68-.45,4.19l-3.48,24.91Zm-39.57-43.96h11.16c2.85-.01,5.43.35,7.72,1.11,2.31.74,4.24,1.9,5.8,3.44,1.59,1.55,2.69,3.55,3.36,5.99.65,2.43.74,5.33.28,8.71-.49,3.38-1.41,6.29-2.76,8.72-1.33,2.44-3.01,4.44-5.02,5.99-2.01,1.54-4.28,2.7-6.79,3.44-2.52.75-5.19,1.12-8.03,1.11h-11.16l5.44-38.51Zm-12.07,43.96h18.98c1.62,0,3.38-.19,5.24-.58,1.86-.36,3.76-.98,5.68-1.79,1.92-.81,3.79-1.86,5.62-3.17,1.8-1.28,3.48-2.85,4.99-4.67,1.54-1.82,2.82-3.94,3.9-6.34,1.08-2.41,1.84-5.12,2.28-8.16.4-3.03.4-5.74.01-8.15-.4-2.4-1.11-4.52-2.12-6.35-1.01-1.82-2.24-3.39-3.67-4.67-1.45-1.31-3.01-2.35-4.7-3.16-1.68-.81-3.43-1.43-5.17-1.79-1.75-.39-3.44-.58-5.08-.58h-18.98l-6.98,49.41Zm-55.83-16.33c.26-1.72.77-3.32,1.52-4.78.75-1.48,1.72-2.75,2.88-3.86,1.16-1.1,2.5-1.96,3.99-2.58,1.48-.6,3.07-.92,4.8-.93,2.31.01,4.27.54,5.86,1.55,1.61,1.01,2.78,2.41,3.5,4.2.72,1.8.93,3.87.61,6.25-.21,1.58-.67,3.08-1.38,4.5-.72,1.43-1.65,2.69-2.79,3.79-1.15,1.09-2.51,1.97-4.04,2.6-1.54.64-3.25.96-5.12.97-1.59-.01-3.05-.31-4.33-.9-1.31-.59-2.41-1.41-3.31-2.47-.9-1.06-1.54-2.31-1.93-3.72-.39-1.43-.49-2.97-.27-4.63Zm30.92-16.33h-5.44l-.77,5.58h-.14c-.41-1.08-.99-2.03-1.73-2.83s-1.6-1.47-2.57-2.01c-.96-.52-2-.92-3.08-1.19-1.09-.26-2.19-.39-3.3-.39-2.6,0-5.04.39-7.26,1.16-2.24.8-4.23,1.92-5.96,3.41-1.73,1.47-3.16,3.27-4.29,5.39-1.12,2.12-1.87,4.52-2.24,7.19-.34,2.41-.24,4.64.31,6.68.55,2.04,1.5,3.8,2.81,5.3,1.34,1.52,3,2.67,5.02,3.5,2,.85,4.29,1.26,6.86,1.27,1.45,0,2.93-.21,4.43-.64,1.49-.44,2.92-1.11,4.28-2,1.37-.9,2.58-2.04,3.64-3.43h.14l-.56,4.18c-.22,1.74-.65,3.4-1.25,4.98-.62,1.56-1.47,2.98-2.57,4.2-1.11,1.24-2.5,2.2-4.2,2.91-1.71.73-3.78,1.09-6.22,1.1-1.66,0-3.17-.21-4.52-.64-1.35-.44-2.58-1.06-3.7-1.91-1.11-.83-2.13-1.87-3.09-3.11l-4.53,4.46c1.33,1.51,2.74,2.72,4.27,3.64,1.54.91,3.2,1.57,5,1.98,1.79.4,3.75.61,5.87.6,3.82-.01,7.16-.71,10.01-2.11,2.84-1.39,5.13-3.44,6.89-6.13,1.74-2.72,2.91-6.03,3.48-9.97l4.39-31.19Zm-75.99,32.66h5.44l2.24-15.92c.34-2.51,1-4.7,1.98-6.57.96-1.88,2.26-3.34,3.91-4.39,1.64-1.05,3.63-1.59,5.97-1.6,1.71.01,3.05.38,4.05,1.08,1,.73,1.67,1.75,2.03,3.06.35,1.33.39,2.9.14,4.72l-2.72,19.61h5.44l2.86-20.17c.39-2.65.27-4.97-.35-6.97-.6-1.99-1.75-3.54-3.44-4.66-1.68-1.12-3.97-1.67-6.81-1.69-1.8.01-3.46.3-5.02.89-1.53.58-2.88,1.33-4.02,2.27-1.15.93-2.05,1.94-2.69,3.04h-.13c.12-.91.22-1.81.31-2.71.08-.91.19-1.79.32-2.66h-5.17c-.17,1.08-.28,2.27-.39,3.56-.09,1.29-.25,2.68-.45,4.19l-3.48,24.91Zm-11.16-45.43c-.09.77,0,1.46.25,2.06.26.59.66,1.06,1.19,1.4.54.33,1.21.51,1.98.52.78-.01,1.48-.19,2.14-.52.65-.34,1.18-.81,1.6-1.4.44-.6.68-1.29.79-2.06.11-.73.04-1.39-.22-1.99-.25-.6-.65-1.07-1.18-1.44-.55-.36-1.19-.54-1.94-.55-.75.01-1.46.19-2.11.55-.65.36-1.21.83-1.65,1.44-.45.6-.73,1.26-.85,1.99Zm-5.1,45.43h5.44l4.6-32.66h-5.44l-4.6,32.66Zm-2.58-32.66h-9.63l1.25-9.28h-5.44l-1.26,9.28h-7.11l-.62,4.6h7.11l-2.58,17.93c-.25,1.69-.34,3.23-.3,4.57.03,1.35.3,2.51.79,3.45.49.95,1.31,1.67,2.43,2.18,1.12.51,2.64.77,4.56.77.67,0,1.39-.03,2.15-.13.75-.08,1.49-.21,2.25-.39.77-.17,1.47-.39,2.15-.67l.49-4.96c-.83.39-1.66.66-2.52.85-.86.18-1.7.27-2.51.27-1.19-.01-2.1-.2-2.71-.59-.62-.39-1.02-.92-1.22-1.61-.19-.68-.26-1.48-.19-2.39.06-.91.18-1.88.36-2.94l2.29-16.33h9.63l.64-4.6Zm-24.57,4.32c-1.41-1.77-3.13-3.07-5.17-3.92-2.03-.84-4.26-1.25-6.69-1.24-2.53.01-4.88.43-7.05,1.28-2.18.86-4.11,2.04-5.83,3.58-1.69,1.54-3.1,3.35-4.19,5.44-1.1,2.08-1.83,4.37-2.19,6.86-.34,2.52-.26,4.83.25,6.91.51,2.09,1.39,3.91,2.66,5.44,1.27,1.52,2.87,2.71,4.82,3.54,1.94.84,4.19,1.26,6.72,1.27,1.59,0,3.16-.19,4.7-.55,1.55-.36,3.04-.94,4.46-1.72,1.43-.77,2.73-1.75,3.96-2.97l-3.49-3.84c-1.22,1.4-2.58,2.42-4.05,3.07-1.47.66-3.11.99-4.89.98-1.66-.01-3.11-.33-4.38-.95-1.26-.62-2.29-1.49-3.11-2.6-.81-1.11-1.37-2.4-1.68-3.86-.32-1.47-.35-3.04-.11-4.72.24-1.7.67-3.26,1.34-4.72.66-1.47,1.53-2.76,2.6-3.86,1.07-1.12,2.34-1.98,3.82-2.61,1.46-.62,3.11-.94,4.94-.95,1.64-.01,3.09.3,4.36.94,1.27.65,2.38,1.66,3.32,3.04l4.87-3.84Zm-63.63,9.08c.51-1.85,1.31-3.47,2.41-4.84,1.12-1.38,2.47-2.45,4.08-3.22s3.43-1.15,5.44-1.16c2.01.01,3.67.4,5,1.16,1.35.77,2.32,1.84,2.93,3.22.61,1.37.83,2.99.65,4.84h-20.52Zm19.61,10.11c-1.48,1.64-3.12,2.87-4.92,3.71-1.79.83-3.85,1.25-6.18,1.25-1.48-.01-2.81-.29-3.99-.83-1.17-.57-2.16-1.32-2.96-2.28-.81-.96-1.4-2.07-1.78-3.32-.38-1.26-.52-2.6-.41-4.03h26.37l.21-1.75c.38-2.71.34-5.12-.11-7.24-.45-2.11-1.26-3.91-2.41-5.37-1.18-1.46-2.66-2.58-4.45-3.33-1.79-.77-3.84-1.15-6.15-1.15-2.43.01-4.71.42-6.85,1.25-2.15.85-4.08,2.01-5.79,3.54-1.72,1.52-3.14,3.32-4.25,5.42-1.12,2.1-1.87,4.42-2.22,6.96-.33,2.38-.26,4.61.2,6.69.46,2.07,1.3,3.89,2.51,5.45,1.2,1.57,2.75,2.79,4.67,3.67,1.91.88,4.14,1.34,6.71,1.35,2.03.01,3.92-.21,5.71-.66,1.78-.43,3.48-1.15,5.1-2.15,1.61-.99,3.18-2.32,4.68-3.96l-3.7-3.21Zm-65.11,9.15h5.44l2.24-15.92c.35-2.51,1-4.7,1.98-6.57.97-1.88,2.27-3.34,3.91-4.39,1.64-1.05,3.63-1.59,5.97-1.6,1.71.01,3.05.38,4.05,1.08,1,.73,1.67,1.75,2.03,3.06.35,1.33.4,2.9.14,4.72l-2.72,19.61h5.44l2.86-20.17c.39-2.65.27-4.97-.35-6.97-.6-1.99-1.75-3.54-3.44-4.66-1.68-1.12-3.97-1.67-6.82-1.69-1.8.01-3.46.3-5,.89-1.54.58-2.87,1.33-4.03,2.27-1.15.93-2.05,1.94-2.69,3.04h-.14c.13-.91.22-1.81.3-2.71.08-.91.19-1.79.32-2.66h-5.17c-.15,1.08-.28,2.27-.39,3.56-.09,1.29-.25,2.68-.45,4.19l-3.48,24.91Zm-38.79,0h5.44l2.24-15.92c.34-2.51,1-4.7,1.98-6.57.97-1.88,2.26-3.34,3.9-4.39,1.65-1.05,3.64-1.59,5.98-1.6,1.69.01,3.05.38,4.05,1.08,1,.73,1.67,1.75,2.03,3.06.34,1.33.39,2.9.14,4.72l-2.72,19.61h5.44l2.86-20.17c.38-2.65.27-4.97-.36-6.97-.6-1.99-1.75-3.54-3.44-4.66-1.68-1.12-3.97-1.67-6.82-1.69-1.8.01-3.46.3-5.02.89-1.53.58-2.87,1.33-4.03,2.27-1.14.93-2.04,1.94-2.69,3.04h-.14c.13-.91.24-1.81.32-2.71.08-.91.19-1.79.32-2.66h-5.17c-.17,1.08-.28,2.27-.39,3.56-.09,1.29-.25,2.68-.45,4.19l-3.48,24.91Zm-35.17-16.33c.25-1.72.74-3.32,1.48-4.78.74-1.48,1.7-2.75,2.86-3.86,1.16-1.1,2.51-1.96,4-2.58,1.49-.6,3.14-.92,4.91-.93,1.77.01,3.31.33,4.66.93,1.34.62,2.44,1.48,3.3,2.58.87,1.11,1.47,2.38,1.81,3.86.33,1.46.38,3.06.13,4.78-.25,1.72-.75,3.31-1.49,4.78-.75,1.46-1.72,2.75-2.88,3.86-1.18,1.08-2.51,1.96-4.03,2.57-1.51.6-3.14.92-4.92.93-1.77-.01-3.31-.33-4.65-.93-1.32-.61-2.41-1.49-3.27-2.57-.85-1.11-1.45-2.4-1.77-3.86-.34-1.47-.39-3.06-.14-4.78Zm-5.86,0c-.35,2.56-.26,4.89.32,6.97.55,2.1,1.52,3.91,2.86,5.43,1.35,1.52,3.02,2.7,5.02,3.52,2.01.81,4.27,1.24,6.79,1.25,2.52-.01,4.91-.43,7.15-1.25,2.23-.82,4.24-2,6.02-3.52,1.78-1.52,3.25-3.33,4.41-5.43,1.15-2.08,1.93-4.41,2.31-6.97.34-2.57.22-4.89-.34-6.98-.59-2.11-1.56-3.91-2.9-5.43-1.35-1.52-3.04-2.69-5.04-3.52-2-.81-4.27-1.22-6.79-1.24-2.52.01-4.91.42-7.13,1.24-2.24.83-4.24,2-6.02,3.52-1.78,1.52-3.24,3.32-4.4,5.43-1.14,2.09-1.9,4.41-2.26,6.98Zm-2.86-26.58c-1.15-1.81-2.57-3.3-4.27-4.44-1.68-1.13-3.56-1.98-5.61-2.51-2.06-.54-4.2-.81-6.45-.8-2.94.01-5.75.44-8.42,1.3-2.67.87-5.17,2.08-7.44,3.66-2.3,1.58-4.33,3.44-6.12,5.59-1.78,2.14-3.24,4.53-4.4,7.13-1.17,2.59-1.94,5.36-2.37,8.27-.49,3.78-.34,7.24.48,10.4.81,3.14,2.19,5.89,4.13,8.22,1.94,2.33,4.34,4.14,7.19,5.4,2.85,1.28,6.05,1.92,9.62,1.94,3.95.01,7.6-.68,10.96-2.11,3.37-1.4,6.37-3.59,8.99-6.55l-3.91-3.7c-2.06,2.25-4.38,3.96-6.94,5.13-2.55,1.18-5.34,1.77-8.35,1.78-2.78-.01-5.25-.54-7.39-1.59-2.14-1.05-3.92-2.51-5.33-4.38-1.39-1.86-2.38-4.04-2.94-6.51-.55-2.47-.64-5.17-.24-8.04.3-2.17.9-4.26,1.79-6.29.87-2.01,1.99-3.89,3.33-5.61,1.35-1.72,2.88-3.22,4.61-4.51,1.73-1.29,3.6-2.29,5.62-3.01,2.01-.72,4.13-1.08,6.35-1.09,1.59,0,3.12.22,4.57.67,1.46.45,2.77,1.12,3.96,2,1.2.9,2.19,2,2.99,3.33l5.58-3.7Z"/>
    <g>
      <path class="cls-5" d="m558.54,603.45c-4.71-2.53-13.07.13-17.7,1.41-7.76,2.87-15.33,6.35-23.03,9.34-4.18,1.61-9.48,2.68-14.83,3.42-.93.07-1.93.19-3.09.4h-.07c-3.47.41-6.87.71-9.91.92-.26.02-.45.13-.6.27-.15-.14-.35-.25-.61-.25-15.93-.65-32.12-3.92-48-3.54-.91.02-1.28,1.32-.62,1.77l3.46.56,2.33.36.53.05c12.6,1.73,25.23,2.7,37.97,2.79l4.33-.06c.26,0,.45-.09.6-.22.15.13.34.22.61.21l3.27-.07.41.08c1.61-.05,3.22-.11,4.83-.19h.11s.46-.02.46-.02c8.54-.42,16.97-1.25,25.26-2.45,2.28-.55,4.49-1.23,6.57-2.05,7.56-3,14.9-6.42,22.64-9.1,1.69-.59,3.95-.76,5.26-2.11.42-.42.36-1.21-.19-1.51h0Z"/>
      <path class="cls-5" d="m555.55,585.99c-1.82,3.72,3.74,3.29,5.91,2.98,1.78-.25,10.88-1.85,10.3-4.98-.33-1.82-4.43-1.35-5.59-1.42-4.29-.24-8.07-.6-10.62,3.42Z"/>
      <path class="cls-5" d="m527.32,281.61c-6.76-4.67-17.51-5.13-25.44-7.6-5.08-1.58-11.37-5.62-16.79-5.71-4.74-.09-8.96,3.03-13.76,3.61-.2-.05-.43-.01-.66.15-.74.57-.85.67-1.31,1.53-.33.59-.01,1.19.58,1.41,5.71,2.25,8.76-2.13,14.35-2,4.51.12,6.65,3.8,10.59,4.83,3.67.94,5.63.59,8.95,3.05,1.31.95,6.44,2.12,3.54,4.43-.68.54-.08,1.64.68,1.65,5.38.05,15.15.14,19.46-3.83.49-.45.28-1.18-.2-1.52Z"/>
      <path class="cls-5" d="m512.75,291.59c-2.17-.41-3.91,1.09-5.93.77-1.08-.38-2.52-1.85-3.73-1-.93.64-.9,2.19-.36,3.06.72,1.17,2.3,1.32,3.52,1.45,2.07.22,3.87.08,5.91.68,1.6.47,6.25.34,4.76-2.51-.72-1.39-2.73-2.17-4.16-2.45Z"/>
      <path class="cls-5" d="m548.15,294.77c1,.01,1.66.85,2.72.77.38-.04.86-.28.93-.71.34-2.38,3.11-2.63,5.25-2.33.78.11,1.57-.62,1.09-1.42-2.61-4.35-9.41-3.49-13.45-4.73-3.85-1.19-10.96-4.18-14.69-1.29-.07.05-.11.12-.15.17-.3.27-.44.7-.19,1.14.86,1.6,7.39,3.48,7.25,4.87.03-.29-7.88-.27-9.6.67-.52.28-.66,1.11-.19,1.52,1.37,1.2,3.29,1.38,5.05,1.54,1.62.14,3.78-.45,5.29.02.64.2,2.57,2.65,3.39,2.85,1.46.35.87.3,2.32-.09,3.43-.96-3.35-3.12,4.98-2.98Z"/>
      <path class="cls-5" d="m573.11,293.14c-1.85-2.11-5.99-2.26-8.51-1.48-1.92.6-3.42,2.34-1.01,3.47,1.6.77,3.41,1.19,5.1,1.73,1.06.34,2.22.85,3.35.9,2.57.13,2.19-2.88,1.22-4.42-.02-.05-.07-.07-.09-.11-.02-.04-.04-.07-.06-.1Z"/>
      <path class="cls-5" d="m509.08,268.28c3.1-.53.47-4.58-.29-5.96-.84-1.49-2.54-5.63-4.72-5.79-.24-.09-.51-.09-.79.08-2.01,1.26-1.04,5.17-.4,6.95.83,2.33,3.4,5.19,6.2,4.72Z"/>
      <path class="cls-5" d="m477.31,277.15c-.08.2-.07.38-.03.53.02,1.65,1.93,2.96,3.38,3.22,1.68.28,4.25-.66,4.24-2.69-.02-3.54-6.4-4.06-7.58-1.06Z"/>
      <path class="cls-5" d="m534.93,282.85c1.75-.67,2.78-2.71,1.79-4.4-.95-1.62-3.11-2.47-4.89-1.86-.04.01-.06.04-.09.06-.05.01-.09.01-.13.03-1.72.91-2.61,3.03-1.41,4.71,1.01,1.43,3.1,2.07,4.73,1.46Z"/>
      <path class="cls-5" d="m545.08,502.37c-.48,1.19-1.21,2.71-2.09,4.36,1.13-2.47,2.09-4.85,2.85-7.28-.2,1.15-.45,2.12-.77,2.92Zm-9.65-175.08c-.49.25-1.81.9-3.63,1.36,1.38-.67,2.75-1.21,4.1-1.62-.15.08-.3.17-.47.26Zm-22.37,128.38c-.93-.59-.45-.46.38-.36-.14.13-.27.25-.38.36Zm-16.82-55.98c.2.2.36.42.46.72.04.12.04.22.05.33-.13-.27-.31-.61-.51-1.05Zm-81.58-97.6c.91-.27,1.74-.33,2.65.11.28.13.49.28.68.45-.98-.33-2.06-.53-3.33-.55Zm-28.44-190.66c-1.85.33-3.11.87-4.9,1.33-1.37.34-2.87.46-4.39.54.52-.08,1.02-.13,1.54-.26,5.96-1.25,12.02-2.71,17.76-4.5.17-.05.87-.27,1.83-.56-.06.24-.04.48.08.73,2.19,4.65,3.26.41,6.78,1.43.75.23,1.01.9,1.47,1.63-6.55-1.04-13.28-1.54-20.17-.34Zm8.77,6.3c-.57.78-2.74,1.53-3.69,1.91-1.06.41-3.08,1.43-4.19.64-2.12-1.52-.66-2.04.29-2.37,1.39-.47,2.93-.58,4.38-.58.54,0,1.09.02,1.62.07.4.02.81.07,1.21.15.64.14.75.2.36.18Zm-2.78,11.63c-.73,0-2.21-.51-1.62-1.42.24-.36.8-.58,1.19-.64.52-.06,1.27.07,1.66.43.87.8-.43,1.53-1.22,1.62Zm18.19-6.69c.47.12,1.21.16,1.25.79.02.46-1.54,1.34-1.85,1.52-1.22.65-2.84,1.14-4.21.77-.8-.21-1.9-.73-1.43-1.62.19-.35.86-.65,1.19-.81,1.56-.77,3.37-.97,5.05-.64Zm10.44-28.01c-3.71.75-7.45,1.6-11.04,2.51,3.59-1,7.3-1.81,11.04-2.51Zm-86.03,151.18c-.05.12-.12.28-.21.47.11-.68.22-1.26.33-1.79.01.7.06.86-.12,1.32Zm.08-4.19c.02.07.02.14.04.21-.01-.1-.06-.2-.08-.3.01.04.04.06.05.08Zm89.68-93.69c1.21-3.39,4,.74,4.45,2.49.11.43.3,1.03.17,1.49-.28,1.14-1.41.81-2.24.41-1.61-.77-2.86-2.55-2.39-4.39Zm71.37-51.53c.95-.07,1.97-.02,3.54.32-1.73-.22-3.32-.26-5.08-.08.47-.11.98-.2,1.53-.24Zm97.28,30.12c-.01.2-.01.42-.01.67-.02-.04-.05-.07-.07-.11-.07-.12-.12-.22-.17-.33.1-.07.18-.13.25-.24Zm-55.54-15.41c-1.14-.91-1.19-1.18-2.1-1.92.8.55,1.49,1.2,2.1,1.92Zm-90.74,57.09c2.05-.77,4.14-1.39,6.24-1.99,4.32-1.22,8.2-3.73,12.77-2.83,2.3.46,11.53,3.69,4.74,5.22-1.59.35-3.93-.42-5.66-.36-4.95.19-9.85,1.29-14.82,1.18-2.01-.05-7.49.38-3.27-1.21Zm38.92,4.26c1.86-.73,3.18-.05,3.95,2.04,2.73,1.87,2.8,2.66.24,2.37-.41.28-1.2.15-1.67.41-1.34.75-1.43,1.35-2.12,2.67-2.98,5.84-.6-.22-4.27-.71-.01,0-3.79,1.26-3.07,1.83-.46-.36.65-3.9.16-4.89-.9-1.85-3.39-2.41-5.54-2.26,4.1-.56,8.18-1.03,12.34-1.46Zm-.42-19.43c-.11-.07-.25-.12-.33-.2-.26-.25-.36-.41-.52-.8.27.35.57.69.85,1Zm10.99,33.32c.38,0,2.17-.34,3.25-.46-1.19,1.21-3.87,2.38-4.87,2.84-2.31,1.06-4.77,1.71-7.25,2.17-1.77.33-3.59.64-5.4.48-2.7-.22-3.86-1.82,0-2.6,1.32-.26,2.59-.25,3.91-.72,1.65-.59,2.9-1.59,4.68-1.73,1.86-.17,3.82.12,5.69.02Zm4.48-5.77c1.97-.38,4.11-1.54,6.06-1.71.25-.02.66-.28.91-.15.45.24.45,1.74.24,2.15-.67,1.3-2.63.58-3.76.53-1.94-.07-3.76.42-5.69-.09-.33-.08-.65-.21-.96-.34,1.07-.11,2.14-.22,3.2-.39Zm-29.15-6.37c-2.54.74-5.32,3.91-5.62,6.59-.26,2.35,1.09,2.42,1.44,4.27.34,1.8,1.46.51-.87,2.39-.49.38-.98.76-1.46,1.14-1.58-1.69-3.14-3.39-4.71-5.08.17.74,1.25-7.63,1.02-7.28.93-1.53,6.55-1.54,8.02-1.79.93-.14,1.84-.25,2.75-.38-.19.04-.4.07-.58.13Zm85.27.91c-.18.07-.36.14-.55.2.2-.07.39-.13.55-.2Zm146.35,225.28h0c-.01-.06-.04-.08-.05-.12-.02-.05-.02-.08-.05-.13t-.01-.02c-.04-.06-.08-.13-.13-.17-1.88-2.82-.64-.54-2.57-1.99-2.37-.2-4.48-1.21-6.34-3.05-1-1.28-1.99-2.57-2.99-3.85-.28-.11-1.81-1.11-1.6-1.02-3.48-1.4-7.3.19-10.75.18-.08-.49-.55-.92-1.15-.8-.33.06-.75.24-1.16.46-.72-.22-1.4-.55-2.05-1.1-3.29-2.71-.01-5.08-5.89-5.96-2.27-.33-4.4.47-6.45,1.33.01-.08.04-.16.04-.25-.06-.65-.58-1.06-1.22-.93-.86.17-2.15,1.77-2.39,2.91-1.13.64-2.3,1.26-2.8,1.12.74-.18,1.87-5.16,1.87-5.21.08-.54-.12-1-.67-1.19-1.85-.62-7.71-.13-10.23-.21-.25-.21-.46-.4-.66-.59,1.02-.74,3.22-2.48,3.45-2.98,1.75-3.89-.61-10.78-3.23-15-.08-.28-.16-.47-.32-.67-.13-.16-.26-.3-.4-.41-.41-.59-.82-1.08-1.21-1.48-3.2-3.25-9.33-7.18-14.2-7.16.24,0-6.52.87-4.96.95-1.58.68-3.26,1.01-5.05.98-3-1.32-4.92-3.47-5.74-6.45-3.48-4.16-4.83-5.57-9.81-7.53-1.65-.64-2.61-.74-3.12-.72.44-.14,1.2-.52,2.26-1.53.28-.27.4-.83.15-1.16-3.74-5.14-8.61-7.23-13.62-6.83-.46-.05-.92-.06-1.38.01-.42.07-.69.19-.98.35-1.43.33-2.87.86-4.3,1.57-8.12,4.1-6.58.02-12.47-1.46-2.79-.71-12.67,4.93-10.82-1.81.11-.39-.07-.9-.45-1.08-1.82-.93-4.05.19-5.32-.36-1.83-.81-2.15-2.25-4.03-3.99-.55-.52-1.75-.2-1.65.68.11,1.03-5.09,6.78-6.51,8.41-.01.01-.02.03-.04.05.01-.05.01-.09.02-.14.38-2.97,1.07-5.52,2.85-8.15.44-.65-.15-1.41-.83-1.45-3.84-.26-6.16,2.66-9.5,3.99-3.64,1.45-10.73.02-13.57,3.54-1.45,1.79-.73,3.79-1.62,5.18-1.56,2.42-1.56,1.4-3.88,3.12-.73.92-1.28,1.93-1.68,3.06-3.7.36-6.57-.68-8.63-3.16-2.49-.94-3.93-2.4-7.1-1.99-6.99.93-7.83,5.12-15.26,1.8-10.71-4.79-9.74-12.59-6.32-21.41.67-1.71,1.99-4.1,1.14-6.02-.13-.28-.53-.49-.84-.47-4.66.34-2.01-3.87-3.97-5.63-3.78-3.4-10.8-.93-15.27-.65-2.86.19-11.95,1.3-12.28-.82-.3-1.92,2.28-4.12,3.16-5.84,1.98-3.9,3.48-7.68,5.93-11.31,1.99-2.94,3.57-4.54,3.97-8.04.05-.36-.32-.88-.71-.93-4.99-.68-15.39-.25-19.54,3.69-.68.65-1.26,1.64-1.92,2.24-.2,1.23-.39,2.45-.59,3.69-3.29,4.31-7.11,5.86-11.47,4.64-6.21.27-12.6-1.91-16.27-6.58-2.85-3.63-5.72-6.49-5.44-11.37.15-2.85,1.19-10.81,1.95-12.47.58-1.21,2.46-2.28,3.24-3.61.29-.48-.83-1.53-.65-1.95,3.6-8.68.94-7.25,5.94-11.23,11.15-8.85,21.92,1.39,32.84-2.4,1.86-.65,3.39-3.58,5.63-4.6,5.42-2.51,7.82-.79,12.61,1.07,1.87.73,2.95,1.44,4.93,1.81,2.91.58,5.97-1.64,9.15.94,1.92,1.56,3.02,2.73,3.67,3.67,0,.01.01.02.01.04.3.92.2,1.18.38,3.08-.59,1.17-1.66,2.14-.42,4.32,2.13,3.78,5.05,7.68,9.65,8.97.45.13.85-.08,1.09-.43,4.32-6.05,1.92-10.76-.86-17.03-3.1-6.96-3.2-13.71,3.07-19.26,4.36-3.84,9.99-4.26,14.45-7.65,3.2-2.43,4.82-4.46,3.99-8.42-.11-.51-1.08-.88-1.17-1.17-.98-2.25-1.96-4.48-2.94-6.72.33.61.65,1.21.97,1.82.38.18.8,2.27,1.49,2.25,2.07-.09,3.63,1.67,5.03-1.12.4-.8-.49-1.43-.45-2.21.01-.39-2.82-3.33-2.64-3.66-.08.15,1.51,1.58,1.45,1.64.12-.12.8-.4,1.6-.75.35-.08.71-.24,1-.46.73-.34,1.41-.71,1.78-1.05,5.19-4.77,5.97-6.3,12.72-6.76,2.44-.17,4.89.29,7.3,0,.75-.1,1.38-1.04.68-1.65-8.92-7.95,4.77-10.24,12.74-12-2.05.6-3.7,1.58-2.69,4.14,2.22,5.72,5.84-.05,8.05-1.21,5.5-2.88,14.28-.6,19.45-4.8.35-.28.33-.81.15-1.16-2.41-5.06-5.4-4.33-8.41-3.03-.08.03-.17.07-.25.11-1.44.64-2.86,1.38-4.24,1.65.47-.1-3.74.22-3.82.21-2.69-.44-4.27-.73-5.14-.94-.04-.11-.06-.17-.11-.3-.06-.13-.1-.25-.15-.36,1.33-.34,3.94-.79-.55-2.67-4.37-1.82-9.44-1.31.11-2.9.53-.08.79-.72.67-1.19-1.19-5.05-7.79-3.32-11.97-2.75-2.52.34-4.87.66-7.03,1.96-.64.38-1.02,1.14-1.6,1.54-2.58,1.85-8.51,5.51-3.52.43,9.08-9.23,19.33-3.44,29.84-4.65,3.19-.36,2.23-.73,5.19-1.71,3.12-1.04,7.63-1.83,10.64-3.5.28-.17.49-.51.47-.84-.23-7.26-10.39-9.15-16.15-10.91-9.65-2.95-11.25-7.91-18.78-13.36-2.8-2.04-3.22-2.44-6.46-1.86-3.9.7-.72,6.45-7.09,6.83-.74.04-12.5-8.36-13.64-8.85-5.07-2.23-14.79-5.51-19.68-3.04-.38.19-.56.71-.45,1.09.9,3.06,2.61,6.28-1.14,7.71-.3.12-.64.34-.68.68-.07.49-.14,1-.21,1.5-.07.48.11,1.1.67,1.19,3.43.61,2.88,6-.53,6.62-.3.05-.62.38-.67.67.01-.12-.55,5.52,0,6.42-4.39,3.9-7.18,4.45-8.31,1.56-1.19-1.9-1.79-3.9-1.8-6-1.17-1.9-.71-2.07-3.09-3.51-5.32-3.24-14.3-2.63-20.38-4.07-2.98-.72-8.45-.12-10.94-1.16,1.96.82-4.24-7.18-4.36-4.85.07-1.34.7-2.42,1.67-3.33.17-.14.32-.27.48-.4,4.86-3.82,16.61-4.04,20.15-5.21.07-.1,4.11-1.88,3.34-1.84.05-.01.09-.01.14-.01.2,1.31.54,2.71.67,3.2.15.52.67.77,1.18.66,4.44-.94,10.95.38,14.65-.8.66-.21,2.95-.62,3.14-1.81.23-1.4.3-1.42-.06-1.95,2.8.43,5.96.67,8.1.83,3.66.28,6.63-1.08,10.54.6,1.67.73,2.84,1.91,4.52,2.63,5.25,2.24,16.25,6.05,21.99,3.52.62-.27.53-1.08.2-1.52-.6-.74-2.58-1.8-4.48-2.57,2.62.21,5.68.28,6.4.11,4.97-1.14,8.5-4.25,6.06-9.24-2.19-4.51-12.98-8.98-17.62-9.84-5.37-.99-10.99-.47-16.41-.49-5.66-.01-9.76-1.22-15.05-2.34-3.47-.73-7.02-.44-10.56-.05,1.62-.36,3.25-.77,4.93-1.15,8.5-1.98,14.76.2,22.92,1.34,6.15.87,12.17-.15,18.25,1.71,3.12.96,5.97,2.92,8.99,4.04,1.46.55,7.48.87,8.23,1.33.06.04.12.02.17.02-.21.28-.54.77-1.02,1.58-.18.27-.19.68,0,.96,1.81,2.72,3.35,1.72,6.24,2.59.81.25,1.35.36,1.78.4.11.12.25.26.36.38-.35.66-.49,1.45-.13,2,.18.27.49.51.83.48.18-.02.33-.07.48-.13.15.72.33,1.47.72,1.9,1.93,2.11,8.32,4.48,10.2,5.58,2.74,1.61,5.4,2.32,8.41,3.45,3,1.12,5.33,3.05,8.37,3.76.8.19,2.14-.83,2.66-.65,2.46.93,5.71,4.54,8.28,4.61,8.65.25.08-7.92-.99-10.74-.04-.11-.05-.21-.07-.32-.19-.77-.96-.85-1.46-.49-.01-.42-.04-.66-.08-.36.17-1.11,0-1.34-.19-1.28.13-.18.28-.39.48-.67-.2.28,2.97-.73,3.32-.94.52-.31.49-1.8.72-1.93-1.11.62-.38-.59.28-1.33.21.03.41.06.6.08-.08.22-.2.52-.4.92-.05.08,1.15-.12,1.64-.2.53-.09.77-.72.67-1.19-1.2-5.82-10.57-8.9-15.52-10.36-7.39-2.19-14.19-4.36-21.34-7.35-20.06-8.41-42.97-11.65-64.67-12.48-22.01-.85-43.95,1.32-65.62,5.09-10.33,1.8-20.78,3.78-30.76,7.05-8.76,2.88-14.49,9.26-22.82,12.47-1.02.17-2.4.04-3.38.4-.79.3-1.03,1.68,0,1.86-1.32.08-2.6.19-3.7.48-2.51.68-4.45,2.14-6.75,3.37-11.27,6-21.6,10.64-31.45,18.84-.41.34-.33,1.01,0,1.37,1.65,1.78,3.83.62,5.34,2.25,3.64,3.86.44,7.78-.55,12.09-1.06,4.59-.09,7.14-5.4,9.57-.35.17-.58.72-.45,1.09.9,2.48,3.43,5.03,5.97,5.31-.02.01-.04.02-.06.02-1.12.27-.77,1.8.26,1.9,2.32.21-1.37,1.08-3.14,2.7-2.24,2-4.34,4.87-5.89,7.46-2.66,4.45-6.9,9.92-9.1,14.67-2.5,5.39-1.9,8.18-.87,13.89,1.53,8.65,7.89,15.15,9.56,23.4.72,3.6.32,5.66,1.67,8.96.32.77,2.09.13,2.61,1.24,1.1,2.28.24,4.16-2.13,6.09-.41.34-.32,1.01,0,1.37,1.51,1.62,4.49,2.71,5.71,4.18,2.74,3.28,1.33,4.91,1.33,8.33,0,.33.19.66.48.84,2.82,1.6,3.43,5.39,4.23,8.18.08.33.34.6.67.68,2.65.66,4.24.28,6.34-1.46.25-.21.33-.62.25-.94-.52-1.88-1.59-3.4-2.09-5.31-.08-.3-.35-.6-.67-.67-1.56-.33-2.74-4.14-3.64-7.39.05-.13.08-.26.08-.45,0-.28-.12-.47-.46-.91-.28-1.06-.53-1.98-.75-2.57-.77-2.11-2.56-5.98-2.05-8.1.08-.33.01-.69-.25-.93-3.2-3.09-6.8-16.46-.25-8.16,2.1,2.65.25,5.78,1.05,8.05.87,2.42,3.06,6.24,4.59,7.88,1.56,1.67,6.49,2.25,3.46,4.61-.34.27-.33.82-.15,1.17,2.83,5.33,9.37,8.48,12.3,14.45,2.44,4.94.45,10.46,2.61,14.86,1.61,3.25,7.36,7.16,10.63,8.96,5.71,3.16,12.93,6.44,19.21,8.78,4.94,1.85,8.6,1.67,12.62,1.19.13-.01.26,0,.4-.01.3-.04.54-.09.82-.14,1.7-.22,3.46-.46,5.44-.61,1.79-.14,5.18,1.09,8.86,2.77,1.24.98,2.22,1.31,3.95,1.9,4.24,2.12,8.26,4.4,10.15,5.51,1.84,1.06,3.82,1.94,5.83,2.75.88.56,1.79,1,3.13,1.34.28.07.54.13.81.19,8.15,3.11,15.92,6.23,17,16.66.05.46.27.78.71.93,4.5,1.64,4.53,1.69,8.75,4.98.77.6.43,1.37,1.2,1.77,4.56,2.4,10.08.48,13.48,5.38.3.43.85.64,1.32.35,4.37-2.63.45.74,2.3.9,2.5.2,3.46,1.52,5.99-.26.44-.3.61-.82.36-1.32-.91-1.67-2.7-2.79-.88-4.62,3.37-3.4,7.94,2.44,10.16,4.82,3.91,4.23,4.61,10.09,4.53,15.87-.07,4.42-1.85,5.47-4.32,8.46-4.24,5.12-17.53,13.76-15.79,22.69.3,1.6,2.64,3.34,2.75,4.08,1,6.12-3.14,2.58-4.57,6.23-1.97,5.05-.62,9.92,2.32,13.52,2.56,3.14,6.7,5.46,9.43,9.02,2.41,3.14,4.79,6.37,7.09,9.61,2.19,3.1,6.3,7.76,6.82,11.56.24,1.73-2.33,5.91-1.96,7.02,1.88,5.39,12.28,6.86,16.82,8.68,5.37,2.15,14.45,4.9,16.8,11.1,1.25,3.3.36,8.3.25,11.73-.26,7.89-.98,14.17-4.93,21.16-3.08,5.45-6.05,9.64-7.04,15.9-.58,3.68.47,8.6-1.81,11.88-1.73,2.48-5.44,3.58-7.34,6.06-2.59,3.41-2.69,6.81-3.61,10.91-1.13,5-6.42,10.62-6.45,15.47,0,.21.07.38.19.53-.14.05-.26.11-.39.17-.06.04-.08.08-.13.12-.02.01-.05.01-.06.04-.02.02-.03.05-.06.07-.04.02-.06.06-.08.1-1.08,1.06-1.4,2.81-2.66,3.76-1.32.99-3.1,1.27-4.37,2.42-.77.68-1.16,1.56-.24,2.32.91.75,2.39.41,3.38.02,1.31-.49,2.51-1.27,3.65-2.1-1.53,2.2-2.9,4.44-3.67,6.87-5.25,16.44,23.87,14.17,32.26,11.82,1.03-.28.86-1.93-.26-1.9-3.76.13-2.71.85-5.1-3.74-3.86-7.4-2.54-1.66.46-5.21,3.1-3.63,8.73-4.27,12.64-6.63.64-.39.64-1.64-.24-1.77-1.2-.18-2.65-.28-3.53-1.28-.38-.42-.68-.72-.94-.95.54.05,1.28-.11,2.2-.78,2.15-1.59,4.25-1.98,5.96-4.26,3.37-4.45,1.28-7.75,7.9-9.47,1.33-.35,3.37.43,5.05-.02,2.43-.65,3.32-6.2,8.29-7.63,1.7-.47,3.73.28,5.56-.21,4.35-1.17,12.62-5.71,14.83-9.7.2-.38.15-.86-.15-1.17.83.81.43-5.33-.8-6.66,2.99.07,11.32,1.25,14.45-.19,4.5-2.09,6.24-5.97,8.8-9.82,3.18-4.77,5.82-5.8,10.27-9.05,4.48-3.27,6.55-5.93,8.12-8.83.01-.02.02-.03.05-.06.71-.96,1.02-1.75,1.33-2.73,1.06-2.3,2.18-4.85,4.1-8.01,6.22-10.24,21.02-7.58,28.17-17.13,2.01-2.7,3.13-6.24,4.9-9.13,2.97-4.87,7.37-9.18,9.54-14.5,2.33-5.74,1.65-11.47,4.95-17.01,2.53-4.26,5.12-8.57,7.53-13.06,5.29-9.83,9.46-12.04,7.03-23.57,0-.08-.01-.15-.05-.24Z"/>
      <path class="cls-5" d="m598.09,117.94s-.06.01-.08.01h-.01c.06,0,.06-.01.1-.01Z"/>
      <path class="cls-5" d="m470.88,123.3s-.01,0-.01-.01c.08.28.07.25.01.01Z"/>
      <path class="cls-5" d="m587.79,160.41c-1.62-.91-3.4-.62-5.14-.95-2.65-.49-3.16-1.35-4.72-3.07-.27-.3-.6.11-.9.11h-.05c-4.24,3.17-7.04,9.89-2.39,11.84,1.37.58,3.5.22,4.92.3,3.56.17,5.77.01,8.64,2.17,2.41,1.81,6.39,3.13,9.38,3.02,1.43-.06,2.11-.27,2.17-1.94.12-3.17-2.69-3.47-4.83-3.76-4.63-.64-3.38-5.64-7.1-7.71Z"/>
      <path class="cls-5" d="m436.75,384.69c-2.19-1.42-6.21-3.19-8.45-1.02-.17.07-.32.19-.44.4-.15.21-.18.41-.15.6-.06.55.12,1.13.25,1.67.39,1.71.79,3.41,1.49,5.03.53,1.25,1.38,2.59,2.94,2.34,1.37-.21,2.5-1.49,3.23-2.58.75-1.11.78-1.56,2.17-2.22.57-.27,1.08-.44,1.27-1.12.38-1.39-1.34-2.46-2.3-3.1Z"/>
      <path class="cls-5" d="m737.74,308.64c.2.72.42,1.51.66,2.45.45,1.81.75,3.31.98,4.62-.53-2.36-1.07-4.72-1.64-7.06Zm-49.88-128.24c-.09-.19-.22-.31-.39-.38-.4-.24-.83-.07-1.11.28-.2.2-.33.49-.26.86,3.87,19.47,21.45,31,28.76,49.26,6.31,15.76,9.2,32.96,14.08,49.21,4.83,16.1,8.07,32.3,11.09,48.76.83,4.48,3.23,21.71,10.59,20.91.51-.06.99-.4.96-.96-1.71-61.9-23.92-120.5-63.73-167.95Z"/>
      <path class="cls-5" d="m612.14,126.9c2.4,1.59,4.04,4.01,6.44,5.56,2.25,1.43,5.7,2.59,6.65-.73.42-1.46.8-4.01-.06-5.24-.68-.99-2.9-1.8-3.9-2.4-1.6-.95-3.2-1.88-4.82-2.81-.25-.14-.48-.15-.69-.09h-.05c-1.09.19-9.37-.02-7.76,3.08.65,1.26,3.07,1.9,4.18,2.64Z"/>
      <path class="cls-1" d="m470.88,123.3s-.01,0-.01-.01c.08.28.07.25.01.01Z"/>
    </g>
  </g>
  <g id="Artboard_4" data-name="Artboard 4">
    <g>
      <path class="cls-5" d="m569.75,674.83c-3.92-3.54-8.22-6.32-12.9-8.47-4.55-2.15-9.36-3.67-14.42-4.68-5.06-1.01-10.12-1.39-15.43-1.39s-10.88.63-16.06,1.9c-5.19,1.26-9.99,3.04-14.42,5.56-4.55,2.4-8.47,5.44-11.76,9.11-3.41,3.67-6.07,7.84-7.97,12.65-1.9,4.81-2.91,10.24-2.91,16.19s1.01,10.75,2.78,14.8c1.77,4.05,4.3,7.46,7.34,10.24,3.16,2.78,6.58,5.06,10.5,6.96,3.92,1.9,7.84,3.54,12.01,4.81,4.17,1.39,8.09,2.66,12.01,3.92,3.92,1.26,7.34,2.53,10.5,4.05s5.56,3.29,7.46,5.44c1.77,2.15,2.78,4.81,2.78,7.97,0,2.4-.63,4.55-1.9,6.45-1.26,1.9-2.91,3.41-4.93,4.55-2.02,1.14-4.3,2.15-6.83,2.66-2.53.63-4.93.89-7.59.89-3.41,0-6.83-.51-10.12-1.52s-6.32-2.53-9.23-4.55-5.31-4.3-7.46-7.08l-21.88,24.03c6.58,6.07,13.79,10.5,21.63,13.28,7.84,2.78,16.31,4.17,25.17,4.17,5.82,0,11.38-.63,16.69-1.77,5.31-1.26,10.24-3.04,14.67-5.44,4.55-2.4,8.47-5.44,11.76-9.11,3.29-3.67,5.94-7.97,7.84-12.9s2.78-10.5,2.78-16.69-.89-11.26-2.78-15.43c-1.77-4.3-4.17-7.71-7.34-10.62-3.04-2.78-6.45-5.19-10.24-6.96-3.79-1.9-7.71-3.41-11.76-4.68-4.05-1.26-7.97-2.4-11.76-3.54s-7.21-2.4-10.24-3.67c-3.04-1.39-5.44-3.04-7.34-5.06-1.77-2.02-2.78-4.68-2.78-7.71,0-2.66.76-4.81,2.02-6.7s3.04-3.29,5.06-4.43c2.02-1.14,4.3-2.02,6.7-2.53s4.68-.76,6.96-.76c2.53,0,5.19.38,7.97,1.01s5.44,1.64,7.97,3.04,4.68,3.16,6.32,5.19l21.12-23.14Zm-148.6,131.78l30.73.13v-146.33h-30.73v146.2Zm-26.69-86.13h-54.51v28.33h25.04v22.64c-1.9,1.14-4.3,2.15-7.08,3.16s-6.07,1.9-9.74,2.66c-3.67.63-7.71,1.01-12.14,1.14-6.58,0-12.52-1.14-17.83-3.41s-9.86-5.31-13.66-9.36c-3.79-4.05-6.7-8.73-8.73-14.16-2.02-5.44-3.04-11.51-3.04-17.96s1.01-12.52,3.04-17.96c2.02-5.44,4.93-10.24,8.73-14.16,3.79-4.05,8.35-7.08,13.66-9.36,5.31-2.15,11.26-3.29,17.83-3.41,5.19,0,9.74.51,13.79,1.52s7.71,2.53,11,4.43c3.29,2.02,6.32,4.43,8.98,7.34l21.63-23.65c-4.68-4.3-9.86-7.71-15.68-10.37-5.82-2.66-12.01-4.55-18.72-5.69-6.7-1.14-13.66-1.77-21.12-1.77-10.88,0-20.99,1.77-30.1,5.19-9.11,3.41-17.07,8.35-23.78,14.67-6.7,6.45-11.89,14.04-15.68,23.14-3.67,8.98-5.56,19.1-5.69,30.23.13,11.13,1.9,21.25,5.69,30.23,3.67,8.98,8.98,16.69,15.68,23.14s14.67,11.26,23.78,14.67c9.11,3.41,19.1,5.06,30.1,5.19,10.24,0,20.36-1.01,30.1-3.16,9.86-2.15,19.22-5.56,28.33-10.24v-72.97h.13Zm-265.59,13.03c0-6.58,1.01-12.52,3.04-17.96,2.02-5.44,4.93-10.24,8.73-14.16,3.79-4.05,8.35-7.08,13.66-9.36,5.31-2.15,11.26-3.29,17.83-3.41,6.58,0,12.52,1.14,17.83,3.41,5.31,2.28,9.86,5.31,13.66,9.36,3.79,4.05,6.7,8.73,8.73,14.16,2.02,5.44,3.04,11.51,3.04,17.96s-1.01,12.52-3.04,17.96c-2.02,5.44-4.93,10.24-8.73,14.16-3.79,4.05-8.35,7.08-13.66,9.36-5.31,2.15-11.26,3.29-17.83,3.41-6.58,0-12.52-1.14-17.83-3.41-5.31-2.28-9.86-5.31-13.66-9.36-3.79-4.05-6.7-8.73-8.73-14.16-1.9-5.44-2.91-11.38-3.04-17.96Zm-31.87,0c.13,11.13,1.9,21.25,5.69,30.23,3.67,8.98,8.98,16.69,15.68,23.14,6.7,6.45,14.67,11.26,23.78,14.67,9.11,3.41,19.22,5.06,30.1,5.19,10.88,0,20.99-1.77,30.1-5.19,9.11-3.41,17.07-8.35,23.78-14.67,6.7-6.45,12.01-14.16,15.68-23.14,3.67-8.98,5.56-19.1,5.69-30.23,0-11.26-1.9-21.25-5.69-30.23-3.67-8.98-8.85-16.69-15.68-23.14-6.7-6.45-14.67-11.26-23.78-14.67-9.11-3.41-19.22-5.06-30.1-5.19-10.88,0-20.99,1.77-30.1,5.19-9.11,3.41-17.07,8.35-23.78,14.67-6.7,6.45-11.89,14.04-15.68,23.14-3.79,8.98-5.56,18.97-5.69,30.23ZM0,806.61h87.64v-28.2H30.73v-118.12H0s0,146.33,0,146.33Z"/>
      <path class="cls-3" d="m914.51,806.61h30.73v-62.73l54.76-83.6h-36.63l-33.43,55.9-31.67-55.9h-38.52l54.76,83.6v62.73Zm-87.14-58.81h-34.02l16.95-43.25,17.07,43.25Zm-90.58,58.81h33.9l12.93-32.88h54.13l13.35,32.88h34.75l-63.6-146.33h-22.24l-63.2,146.33Zm-144.78,0h30.73v-102.44h.38l62.77,102.44h38.28v-146.33h-30.73v100.54h-.38l-61.43-100.54h-39.49l-.13,143.04v3.29Z"/>
      <polygon class="cls-2" points="17.2 683.68 607.06 793.33 602.76 787.77 17.83 679 17.2 683.68"/>
      <polygon class="cls-2" points="609.59 792.07 934.36 745.02 933.6 740.34 608.83 787.39 609.59 792.07"/>
      <path class="cls-2" d="m607.94,782.07c4.3,0,7.84,3.54,7.84,7.84s-3.54,7.84-7.84,7.84-7.84-3.54-7.84-7.84,3.54-7.84,7.84-7.84Z"/>
      <path class="cls-2" d="m17.58,673.56c4.3,0,7.84,3.54,7.84,7.84s-3.54,7.84-7.84,7.84-7.84-3.54-7.84-7.84,3.54-7.84,7.84-7.84Z"/>
      <path class="cls-2" d="m933.6,734.52c4.3,0,7.84,3.54,7.84,7.84s-3.54,7.84-7.84,7.84-7.84-3.54-7.84-7.84,3.54-7.84,7.84-7.84Z"/>
      <path class="cls-5" d="m156.06,693.8c-1.9-.13-2.91.25-3.16,1.01l-.13,1.39.51.89v4.3c-.25.51-.38.76-.38.89l.13,1.01-.13.89c.76.38,1.14.89,1.01,1.52l.13,1.14.51.38c0,.38,0,.63.25.63.13.13.25.25.25.25.13.25.13.38.25.38v.76c-.38.13-.51.25-.38.38l-.38.13c-.38.25-.51.38-.63.25l-1.9-.13c-.38-.38-.63-.51-.89-.38-1.01-1.14-1.77-1.64-2.15-1.52-.76,0-1.39-.13-1.77-.13h-.38v1.01l.13.63v1.26h-.51c-.51-.89-.89-1.26-.89-1.26-1.14-.13-1.52,0-1.14.51s.51.89.51,1.01c.63.89.89,1.26.89,1.39.63.51.89.89.76,1.26v.51c.38.63.63,1.14.63,1.26.13.38.25.63.38.63l.25.38c-.13.25-.13.51,0,.63.13.63.25.89.38,1.01-.13,0-.13.25,0,.51-.13.51-.13.89,0,.89-.38.25-.38.51-.13.76l.13,1.39c.38.89.51,1.64.13,2.28l-.13,1.14c-.25,1.01-.25,1.64.13,1.9.38.51.76.89,1.26,1.01,0,.63.25,1.26.76,1.64.63.89,1.01,1.39.89,1.52.51,1.39.89,2.02,1.14,2.02,1.01,1.14,1.52,1.9,1.39,2.02.25.89.38,1.39.63,1.39l.63,1.26.13.63c0,.13.13.25.38.51,0,.13.38.38,1.26,1.01.38-.13,1.26.25,2.78,1.14.13.13.38.25.89.38.13,0,.38.13.51.25,0,.13.38.38,1.01.63.38.13.63.38,1.01.89v1.9c-.25.13-.38.38-.38.89l-.38.38c-.38-.13-.51.38-.38,1.64.13.89.38,1.26.51,1.39.25.38.38.76.25,1.26-.13,1.01-.13,1.77,0,2.28,0,.51-.13.63-.25.76-.13.89-.13,1.39.13,1.52.13.76,0,1.14-.38,1.14-.25.25-.76.51-1.39.76-.38.38-.63.63-.63.89-.13.25-.13.38-.25.38-.51.76-.76,1.01-.63,1.01l-.51.51c-.51.13-.76.38-.89.63-.51.76-.76,1.01-1.01.89-.89.38-1.26.76-.89,1.01-.38.89-.63,1.26-.76,1.39-1.14.38-1.77.63-1.64,1.01-.38.51-.38.76.13.63.76.13,1.26.25,1.39.38.89,0,1.39.13,1.52.38.38.25.89.13,1.64-.38,1.39-.25,2.02.13,2.28,1.14.38,1.14.89,1.26,1.64.51.13-1.14.63-1.52,1.26-1.39,1.01-.51,1.52-1.14,1.52-1.77.13-1.52.38-2.02.76-1.9,1.01-1.64,1.9-2.4,2.78-2.02.63.13.89.13,1.01.25l1.39.13.25-.51c.38.13.63.13.63-.13s.38-.63,1.01-.89c.13-.13.25-.38.51-.89,0-.38.25-.63,1.01-.63l.38-.25h.89l.13-.38c1.64.13,2.53.13,2.66.13,0,.25,0,.51.25.63l.13.38c.63.13.89.38.63.63.25.13.38.25.51.25.13.25.25.38.38.38.25.13.38.25.51.25,1.01,0,1.64,0,1.64-.13q0,.13.13.13l1.01.63c.63.51,1.01.89,1.01,1.14.38.38.63.76.89.89.51.38.63.63.51.63.76.25,1.01.38,1.14.63.63.38,1.01.63,1.26.63.89.51,1.26.89,1.26,1.14.63.51,1.01.89,1.26.89,1.01,1.26,1.39,2.02,1.26,2.4v.51c.63,0,1.01-.13,1.01-.38.13-2.66-.51-4.3-1.9-4.68l-.89-.38c-.76-.13-1.01-.25-.89-.63l.25-.63.76-.38c.63-.38,1.01-.51,1.14-.51.25-.25.51-.38.51-.38l.38-.25c0-.38.13-.63.38-.51.13-.51.25-.76.38-.76.51-1.14.51-1.64,0-1.9-.13-.51-.13-.76-.38-.76,0-.63-.13-1.01-.25-1.01v-1.26c.25-.51.51-1.01.51-1.39,0-1.01-.13-1.64-.38-1.9h-.13c0-.13.13-.25.38-.38,0-.25.51-.38,1.52-.25,0,.13.51.25,1.52.13.13-.13.63-.25,1.26-.25,1.14-.25,1.9-.89,2.4-1.9l.63-.25c.25-.25,1.64-.25,3.79-.13.38,0,.63-.38,1.01-.76.25-.25.76-1.26,1.64-3.29.51-.25.38-.89-.13-1.77-.25.13-.89-.38-1.64-1.39q0-.13-.25-.13c0-.13-.38-.51-1.26-1.01,0-.25-.13-.38-.51-.63,0-.13-.38-.76-1.26-1.77,0-.51-.13-.89-.51-1.14.13-.89,0-1.39-.13-1.52v-2.4c0-.25-.38-.51-1.01-.63h-2.4c0-.13-.13-.13-.25-.25h-2.02c0-.13-.38-.13-.89-.13,0-.13-.38-.25-1.14-.38,0-.63-.13-1.14-.38-1.52v-2.91l-.38-.51h-1.64l-.51-.38c-.51-.38-1.39-.13-2.4.38-.13.25-.38.25-.63,0-.25-1.14-.25-1.64-.13-1.77.13-.51.13-.89.13-1.26.13-.76.25-1.14.38-1.01-.13-1.39-.13-2.15.13-2.15.25-.51.25-.89,0-1.01.25-.89.38-1.39.13-1.77.38-.38.38-.63.38-.63.51-1.01.63-1.39.38-1.39.13-.89.25-1.26.51-1.26,0-1.01-.13-1.77-.63-2.15-.76-1.26-1.39-1.77-1.9-1.52-.38.51-.76.63-1.01.51-.76.38-1.14.63-1.14.63-.63.13-1.01.25-1.01.51-.13.38-.25.51-.38.63-.13.51-.13.89,0,1.01.13.38-.13.63-.51.63-.89-1.26-1.26-1.9-1.14-2.02-1.14-.89-1.64-1.39-1.39-1.52-.51-.63-.89-.89-1.01-.89-1.01-1.14-1.39-1.9-1.39-2.02-.25-.13-.63-.13-1.26,0-1.26.13-1.9-.25-1.77-1.14-.25-.89-.63-1.39-1.01-1.64-.25.25-.51.25-.63,0-.76-.51-1.26-.38-1.26.38-.51.38-.76.63-.76.89-.63.38-.89.76-.63,1.14-.63.76-1.01,1.14-1.14,1.01-.25-.38-.25-.51-.25-.63-.13-.25-.13-.51-.25-.51-.13-.51-.25-.89-.38-.89-.25-.25-.51-.38-.63-.25-.25-.25-.51-.25-.63-.25-.13-.51-.38-.76-.76-.63-.76-.63-.89-.89-.63-1.14l.89-.63c.38-.25.51-.25.63-.13.13,0,.25,0,.38-.13h.38c.25,0,.51-.13.38-.25.13-.25.51-.25,1.01-.25l.89-.76c.13-.38.13-.63,0-.76-.25-.76-.38-1.14-.38-1.14-.38-.38-.51-.76-.51-.89-.51-.76-.63-1.14-.51-1.14-.25-1.26-.51-1.77-.76-1.52-.25-.89-.76-1.14-1.52-1.01l-3.16-.13c-.25-.25-.51-.25-.63-.13l-.38-.13-2.02-.13c-.51-.25-.89-.25-1.14-.13h-.89c-.25-.13-.51-.25-.76-.25-1.01-.51-1.52-.76-1.64-1.01Z"/>
    </g>
  </g>
</svg>