<?xml version="1.0" encoding="UTF-8"?>
<svg xmlns="http://www.w3.org/2000/svg" viewBox="0 0 711.68 115.9">
  <defs>
    <style>
      .cls-1 {
        fill: lime;
      }

      .cls-1, .cls-2, .cls-3, .cls-4 {
        fill-rule: evenodd;
      }

      .cls-2 {
        fill: #fff;
      }

      .cls-3 {
        fill: #0b65ba;
      }

      .cls-4 {
        fill: #033382;
      }
    </style>
  </defs>
  <g id="Artboard_1" data-name="Artboard 1">
    <g>
      <path class="cls-4" d="m67.55,112.21c-1.02-.55-2.84.03-3.84.31-1.68.62-3.33,1.38-5,2.03-.91.35-2.06.58-3.22.74-.2.02-.42.04-.67.09h-.02c-.75.09-1.49.15-2.15.2-.06,0-.1.03-.13.06-.03-.03-.08-.05-.13-.05-3.46-.14-6.97-.85-10.42-.77-.2,0-.28.29-.14.38l.75.12.51.08h.11c2.73.39,5.48.6,8.24.62h.94c.06-.01.1-.03.13-.06.03.03.07.05.13.05l.71-.02.09.02c.35,0,.7-.02,1.05-.04h.02s.1,0,.1,0c1.85-.09,3.68-.27,5.48-.53.5-.12.97-.27,1.43-.44,1.64-.65,3.23-1.39,4.91-1.98.37-.13.86-.17,1.14-.46.09-.09.08-.26-.04-.33h0Z"/>
      <path class="cls-4" d="m66.9,108.42c-.4.81.81.71,1.28.65.39-.05,2.36-.4,2.24-1.08-.07-.4-.96-.29-1.21-.31-.93-.05-1.75-.13-2.31.74Z"/>
      <path class="cls-4" d="m60.78,42.37c-1.47-1.01-3.8-1.11-5.52-1.65-1.1-.34-2.47-1.22-3.64-1.24-1.03-.02-1.94.66-2.99.78-.04,0-.09,0-.14.03-.16.12-.18.15-.28.33-.07.13,0,.26.12.31,1.24.49,1.9-.46,3.11-.43.98.03,1.44.82,2.3,1.05.8.2,1.22.13,1.94.66.28.21,1.4.46.77.96-.15.12-.02.36.15.36,1.17,0,3.29.03,4.22-.83.11-.1.06-.26-.04-.33Z"/>
      <path class="cls-4" d="m57.61,44.53c-.47-.09-.85.24-1.29.17-.23-.08-.55-.4-.81-.22-.2.14-.19.47-.08.66.16.25.5.29.76.31.45.05.84.02,1.28.15.35.1,1.36.07,1.03-.54-.16-.3-.59-.47-.9-.53Z"/>
      <path class="cls-4" d="m65.3,45.22c.22,0,.36.18.59.17.08,0,.19-.06.2-.15.07-.52.67-.57,1.14-.51.17.02.34-.14.24-.31-.57-.94-2.04-.76-2.92-1.03-.84-.26-2.38-.91-3.19-.28-.02,0-.02.03-.03.04-.06.06-.09.15-.04.25.19.35,1.6.75,1.57,1.06,0-.06-1.71-.06-2.08.15-.11.06-.14.24-.04.33.3.26.71.3,1.1.33.35.03.82-.1,1.15,0,.14.04.56.57.74.62.32.08.19.07.5-.02.74-.21-.73-.68,1.08-.65Z"/>
      <path class="cls-4" d="m70.71,44.87c-.4-.46-1.3-.49-1.85-.32-.42.13-.74.51-.22.75.35.17.74.26,1.11.38.23.07.48.18.73.2.56.03.48-.63.27-.96,0-.01-.02-.02-.02-.02,0,0,0-.02-.01-.02Z"/>
      <path class="cls-4" d="m56.82,39.47c.67-.12.1-.99-.06-1.29-.18-.32-.55-1.22-1.02-1.26-.05-.02-.11-.02-.17.02-.44.27-.23,1.12-.09,1.51.18.51.74,1.13,1.35,1.02Z"/>
      <path class="cls-4" d="m49.92,41.4s-.02.08,0,.11c0,.36.42.64.73.7.36.06.92-.14.92-.58,0-.77-1.39-.88-1.65-.23Z"/>
      <path class="cls-4" d="m62.43,42.64c.38-.15.6-.59.39-.96-.21-.35-.67-.54-1.06-.4,0,0-.01,0-.02.01-.01,0-.02,0-.03,0-.37.2-.57.66-.31,1.02.22.31.67.45,1.03.32Z"/>
      <path class="cls-4" d="m64.63,90.28c-.1.26-.26.59-.45.95.25-.54.45-1.05.62-1.58-.04.25-.1.46-.17.63Zm-2.1-38c-.11.05-.39.19-.79.29.3-.15.6-.26.89-.35-.03.02-.06.04-.1.06Zm-4.85,27.86c-.2-.13-.1-.1.08-.08-.03.03-.06.05-.08.08Zm-3.65-12.15s.08.09.1.16c0,.03,0,.05.01.07-.03-.06-.07-.13-.11-.23Zm-17.7-21.18c.2-.06.38-.07.57.02.06.03.11.06.15.1-.21-.07-.45-.12-.72-.12ZM30.15,5.43c-.4.07-.67.19-1.06.29-.3.07-.62.1-.95.12.11-.02.22-.03.33-.06,1.29-.27,2.61-.59,3.85-.98.04,0,.19-.06.4-.12-.01.05,0,.1.02.16.47,1.01.71.09,1.47.31.16.05.22.19.32.35-1.42-.23-2.88-.33-4.38-.07Zm1.9,1.37c-.12.17-.6.33-.8.41-.23.09-.67.31-.91.14-.46-.33-.14-.44.06-.51.3-.1.64-.13.95-.13.12,0,.24,0,.35.02.09,0,.18.02.26.03.14.03.16.04.08.04Zm-.6,2.52c-.16,0-.48-.11-.35-.31.05-.08.17-.13.26-.14.11-.01.28.02.36.09.19.17-.09.33-.27.35Zm3.95-1.45c.1.03.26.04.27.17,0,.1-.33.29-.4.33-.27.14-.62.25-.91.17-.17-.05-.41-.16-.31-.35.04-.08.19-.14.26-.18.34-.17.73-.21,1.1-.14Zm2.27-6.08c-.8.16-1.62.35-2.4.54.78-.22,1.58-.39,2.4-.54Zm-18.67,32.81s-.03.06-.05.1c.02-.15.05-.27.07-.39,0,.15.01.19-.03.29Zm.02-.91s0,.03,0,.05c0-.02-.01-.04-.02-.06,0,0,0,.01,0,.02Zm19.46-20.33c.26-.74.87.16.97.54.02.09.06.22.04.32-.06.25-.31.18-.49.09-.35-.17-.62-.55-.52-.95Zm15.49-11.18c.21-.02.43,0,.77.07-.38-.05-.72-.06-1.1-.02.1-.02.21-.04.33-.05Zm21.11,6.54s0,.09,0,.15c0,0,0-.02-.02-.02-.02-.03-.03-.05-.04-.07.02-.02.04-.03.05-.05Zm-12.05-3.34c-.25-.2-.26-.26-.46-.42.17.12.32.26.46.42Zm-19.69,12.39c.44-.17.9-.3,1.35-.43.94-.27,1.78-.81,2.77-.61.5.1,2.5.8,1.03,1.13-.34.08-.85-.09-1.23-.08-1.07.04-2.14.28-3.22.26-.44,0-1.62.08-.71-.26Zm8.45.92c.4-.16.69-.01.86.44.59.41.61.58.05.51-.09.06-.26.03-.36.09-.29.16-.31.29-.46.58-.65,1.27-.13-.05-.93-.15,0,0-.82.27-.67.4-.1-.08.14-.85.04-1.06-.19-.4-.74-.52-1.2-.49.89-.12,1.78-.22,2.68-.32Zm-.09-4.22s-.05-.03-.07-.04c-.06-.05-.08-.09-.11-.17.06.08.12.15.18.22Zm2.39,7.23c.08,0,.47-.07.71-.1-.26.26-.84.52-1.06.62-.5.23-1.03.37-1.57.47-.38.07-.78.14-1.17.1-.59-.05-.84-.4,0-.56.29-.06.56-.05.85-.16.36-.13.63-.35,1.02-.38.4-.04.83.03,1.23,0Zm.97-1.25c.43-.08.89-.33,1.32-.37.05,0,.14-.06.2-.03.1.05.1.38.05.47-.15.28-.57.12-.81.12-.42-.02-.82.09-1.23-.02-.07-.02-.14-.05-.21-.07.23-.02.47-.05.69-.08Zm-6.33-1.38c-.55.16-1.15.85-1.22,1.43-.06.51.24.53.31.93.07.39.32.11-.19.52-.11.08-.21.17-.32.25-.34-.37-.68-.74-1.02-1.1.04.16.27-1.66.22-1.58.2-.33,1.42-.33,1.74-.39.2-.03.4-.05.6-.08-.04,0-.09.02-.13.03Zm18.5.2s-.08.03-.12.04c.04-.02.08-.03.12-.04Zm31.76,48.89h0s0-.02,0-.03c0-.01,0-.02-.01-.03t0,0s-.02-.03-.03-.04c-.41-.61-.14-.12-.56-.43-.51-.04-.97-.26-1.38-.66-.22-.28-.43-.56-.65-.84-.06-.02-.39-.24-.35-.22-.75-.3-1.58.04-2.33.04-.02-.11-.12-.2-.25-.17-.07.01-.16.05-.25.1-.16-.05-.3-.12-.44-.24-.71-.59,0-1.1-1.28-1.29-.49-.07-.96.1-1.4.29,0-.02,0-.04,0-.05-.01-.14-.13-.23-.27-.2-.19.04-.47.38-.52.63-.25.14-.5.27-.61.24.16-.04.41-1.12.41-1.13.02-.12-.03-.22-.15-.26-.4-.14-1.67-.03-2.22-.05-.05-.05-.1-.09-.14-.13.22-.16.7-.54.75-.65.38-.84-.13-2.34-.7-3.26-.02-.06-.04-.1-.07-.15-.03-.04-.06-.07-.09-.09-.09-.13-.18-.24-.26-.32-.7-.71-2.02-1.56-3.08-1.55.05,0-1.42.19-1.08.21-.34.15-.71.22-1.1.21-.65-.29-1.07-.75-1.25-1.4-.76-.9-1.05-1.21-2.13-1.63-.36-.14-.57-.16-.68-.16.09-.03.26-.11.49-.33.06-.06.09-.18.03-.25-.81-1.11-1.87-1.57-2.96-1.48-.1-.01-.2-.01-.3,0-.09.02-.15.04-.21.08-.31.07-.62.19-.93.34-1.76.89-1.43,0-2.71-.32-.61-.15-2.75,1.07-2.35-.39.02-.08-.02-.19-.1-.24-.4-.2-.88.04-1.15-.08-.4-.18-.47-.49-.87-.87-.12-.11-.38-.04-.36.15.02.22-1.1,1.47-1.41,1.82,0,0,0,0,0,0,0,0,0-.02,0-.03.08-.64.23-1.2.62-1.77.09-.14-.03-.31-.18-.31-.83-.06-1.34.58-2.06.87-.79.31-2.33,0-2.95.77-.31.39-.16.82-.35,1.12-.34.53-.34.3-.84.68-.16.2-.28.42-.36.66-.8.08-1.43-.15-1.87-.68-.54-.2-.85-.52-1.54-.43-1.52.2-1.7,1.11-3.31.39-2.33-1.04-2.11-2.73-1.37-4.65.15-.37.43-.89.25-1.31-.03-.06-.12-.11-.18-.1-1.01.07-.44-.84-.86-1.22-.82-.74-2.34-.2-3.31-.14-.62.04-2.59.28-2.67-.18-.07-.42.5-.89.68-1.27.43-.85.75-1.67,1.29-2.46.43-.64.77-.99.86-1.75.01-.08-.07-.19-.15-.2-1.08-.15-3.34-.05-4.24.8-.15.14-.27.36-.42.49-.04.27-.08.53-.13.8-.71.94-1.54,1.27-2.49,1.01-1.35.06-2.73-.41-3.53-1.43-.62-.79-1.24-1.41-1.18-2.47.03-.62.26-2.35.42-2.71.13-.26.53-.5.7-.78.06-.1-.18-.33-.14-.42.78-1.88.2-1.57,1.29-2.44,2.42-1.92,4.76.3,7.13-.52.4-.14.74-.78,1.22-1,1.18-.54,1.7-.17,2.74.23.41.16.64.31,1.07.39.63.12,1.3-.36,1.99.2.42.34.66.59.8.8,0,0,0,0,0,0,.06.2.04.26.08.67-.13.25-.36.47-.09.94.46.82,1.1,1.67,2.1,1.95.1.03.18-.02.24-.09.94-1.31.42-2.34-.19-3.7-.67-1.51-.7-2.98.67-4.18.95-.83,2.17-.92,3.14-1.66.7-.53,1.05-.97.87-1.83-.02-.11-.24-.19-.25-.25-.21-.49-.42-.97-.64-1.46.07.13.14.26.21.4.08.04.17.49.32.49.45-.02.79.36,1.09-.24.09-.17-.11-.31-.1-.48,0-.08-.61-.72-.57-.79-.02.03.33.34.31.36.03-.03.17-.09.35-.16.08-.02.15-.05.22-.1.16-.07.31-.15.39-.23,1.13-1.03,1.3-1.37,2.76-1.47.53-.04,1.06.06,1.58,0,.16-.02.3-.23.15-.36-1.94-1.72,1.03-2.22,2.76-2.6-.44.13-.8.34-.58.9.48,1.24,1.27,0,1.75-.26,1.19-.63,3.1-.13,4.22-1.04.08-.06.07-.18.03-.25-.52-1.1-1.17-.94-1.82-.66-.02,0-.04.02-.05.02-.31.14-.62.3-.92.36.1-.02-.81.05-.83.05-.58-.09-.93-.16-1.12-.2,0-.02-.01-.04-.02-.07-.01-.03-.02-.05-.03-.08.29-.07.86-.17-.12-.58-.95-.4-2.05-.28.02-.63.12-.02.17-.16.15-.26-.26-1.1-1.69-.72-2.6-.6-.55.07-1.06.14-1.53.42-.14.08-.22.25-.35.33-.56.4-1.85,1.2-.76.09,1.97-2,4.2-.75,6.48-1.01.69-.08.48-.16,1.13-.37.68-.23,1.66-.4,2.31-.76.06-.04.11-.11.1-.18-.05-1.58-2.25-1.99-3.51-2.37-2.1-.64-2.44-1.72-4.08-2.9-.61-.44-.7-.53-1.4-.4-.85.15-.16,1.4-1.54,1.48-.16,0-2.71-1.81-2.96-1.92-1.1-.48-3.21-1.2-4.27-.66-.08.04-.12.15-.1.24.2.66.57,1.36-.25,1.67-.06.03-.14.07-.15.15-.02.11-.03.22-.05.32-.02.1.02.24.15.26.74.13.63,1.3-.11,1.44-.06.01-.14.08-.15.15,0-.03-.12,1.2,0,1.39-.95.85-1.56.97-1.8.34-.26-.41-.39-.85-.39-1.3-.25-.41-.15-.45-.67-.76-1.16-.7-3.1-.57-4.42-.88-.65-.16-1.83-.03-2.37-.25.42.18-.92-1.56-.95-1.05.02-.29.15-.53.36-.72.04-.03.07-.06.1-.09,1.06-.83,3.61-.88,4.37-1.13.02-.02.89-.41.73-.4.01,0,.02,0,.03,0,.04.28.12.59.15.7.03.11.15.17.26.14.96-.2,2.38.08,3.18-.17.14-.05.64-.14.68-.39.05-.3.06-.31-.01-.42.61.09,1.29.15,1.76.18.79.06,1.44-.23,2.29.13.36.16.62.41.98.57,1.14.49,3.53,1.31,4.77.76.14-.06.12-.23.04-.33-.13-.16-.56-.39-.97-.56.57.05,1.23.06,1.39.02,1.08-.25,1.85-.92,1.32-2.01-.47-.98-2.82-1.95-3.82-2.14-1.17-.21-2.38-.1-3.56-.11-1.23,0-2.12-.27-3.27-.51-.75-.16-1.52-.09-2.29-.01.35-.08.71-.17,1.07-.25,1.84-.43,3.2.04,4.97.29,1.33.19,2.64-.03,3.96.37.68.21,1.3.63,1.95.88.32.12,1.62.19,1.79.29.01,0,.03,0,.04,0-.05.06-.12.17-.22.34-.04.06-.04.15,0,.21.39.59.73.37,1.35.56.18.05.29.08.39.09.02.03.05.06.08.08-.08.14-.11.31-.03.43.04.06.11.11.18.1.04,0,.07-.02.1-.03.03.16.07.32.16.41.42.46,1.81.97,2.21,1.21.6.35,1.17.5,1.82.75.65.24,1.16.66,1.82.82.17.04.47-.18.58-.14.53.2,1.24.99,1.8,1,1.88.05.02-1.72-.21-2.33,0-.02-.01-.05-.02-.07-.04-.17-.21-.18-.32-.11,0-.09,0-.14-.02-.08.04-.24,0-.29-.04-.28.03-.04.06-.08.1-.15-.04.06.64-.16.72-.2.11-.07.11-.39.16-.42-.24.14-.08-.13.06-.29.05,0,.09.01.13.02-.02.05-.04.11-.09.2,0,.02.25-.03.36-.04.12-.02.17-.16.15-.26-.26-1.26-2.29-1.93-3.37-2.25-1.6-.47-3.08-.95-4.63-1.59C63.91.92,58.94.22,54.23.04c-4.78-.18-9.54.29-14.24,1.1-2.24.39-4.51.82-6.68,1.53-1.9.62-3.15,2.01-4.95,2.71-.22.04-.52,0-.73.09-.17.06-.22.37,0,.4-.29.02-.56.04-.8.1-.54.15-.97.47-1.46.73-2.45,1.3-4.69,2.31-6.82,4.09-.09.07-.07.22,0,.3.36.39.83.14,1.16.49.79.84.09,1.69-.12,2.62-.23,1-.02,1.55-1.17,2.08-.08.04-.12.16-.1.24.19.54.74,1.09,1.3,1.15,0,0,0,0-.01,0-.24.06-.17.39.06.41.5.05-.3.23-.68.59-.49.43-.94,1.06-1.28,1.62-.58.97-1.5,2.15-1.97,3.18-.54,1.17-.41,1.78-.19,3.02.33,1.88,1.71,3.29,2.07,5.08.16.78.07,1.23.36,1.94.07.17.45.03.57.27.24.5.05.9-.46,1.32-.09.07-.07.22,0,.3.33.35.97.59,1.24.91.6.71.29,1.06.29,1.81,0,.07.04.14.1.18.61.35.74,1.17.92,1.78.02.07.07.13.15.15.57.14.92.06,1.37-.32.05-.05.07-.14.05-.2-.11-.41-.34-.74-.45-1.15-.02-.07-.08-.13-.15-.15-.34-.07-.6-.9-.79-1.6.01-.03.02-.06.02-.1,0-.06-.03-.1-.1-.2-.06-.23-.12-.43-.16-.56-.17-.46-.56-1.3-.44-1.76.02-.07,0-.15-.05-.2-.69-.67-1.48-3.57-.05-1.77.46.57.05,1.25.23,1.75.19.53.66,1.35,1,1.71.34.36,1.41.49.75,1-.07.06-.07.18-.03.25.61,1.16,2.03,1.84,2.67,3.14.53,1.07.1,2.27.57,3.22.35.71,1.6,1.55,2.31,1.94,1.24.68,2.81,1.4,4.17,1.91,1.07.4,1.87.36,2.74.26.03,0,.06,0,.09,0,.06,0,.12-.02.18-.03.37-.05.75-.1,1.18-.13.39-.03,1.12.24,1.92.6.27.21.48.28.86.41.92.46,1.79.96,2.2,1.2.4.23.83.42,1.27.6.19.12.39.22.68.29.06.02.12.03.18.04,1.77.67,3.45,1.35,3.69,3.62.01.1.06.17.15.2.98.36.98.37,1.9,1.08.17.13.09.3.26.38.99.52,2.19.1,2.93,1.17.06.09.18.14.29.08.95-.57.1.16.5.19.54.04.75.33,1.3-.06.09-.07.13-.18.08-.29-.2-.36-.59-.61-.19-1,.73-.74,1.72.53,2.2,1.05.85.92,1,2.19.98,3.44-.02.96-.4,1.19-.94,1.84-.92,1.11-3.8,2.99-3.43,4.92.07.35.57.73.6.89.22,1.33-.68.56-.99,1.35-.43,1.1-.14,2.15.5,2.93.56.68,1.45,1.19,2.05,1.96.52.68,1.04,1.38,1.54,2.09.48.67,1.37,1.68,1.48,2.51.05.38-.51,1.28-.42,1.52.41,1.17,2.67,1.49,3.65,1.88,1.16.47,3.14,1.06,3.65,2.41.27.72.08,1.8.05,2.55-.06,1.71-.21,3.08-1.07,4.59-.67,1.18-1.31,2.09-1.53,3.45-.12.8.1,1.87-.39,2.58-.38.54-1.18.78-1.59,1.32-.56.74-.58,1.48-.78,2.37-.25,1.09-1.39,2.3-1.4,3.36,0,.05.02.08.04.12-.03,0-.06.02-.08.04-.01,0-.02.02-.03.03,0,0-.01,0-.01,0,0,0,0,.01-.01.02,0,0-.01.01-.02.02-.23.23-.3.61-.58.82-.29.21-.67.28-.95.53-.17.15-.25.34-.05.5.2.16.52.09.73,0,.28-.11.54-.28.79-.46-.33.48-.63.96-.8,1.49-1.14,3.57,5.18,3.08,7,2.57.22-.06.19-.42-.06-.41-.82.03-.59.18-1.11-.81-.84-1.61-.55-.36.1-1.13.67-.79,1.9-.93,2.74-1.44.14-.08.14-.36-.05-.38-.26-.04-.57-.06-.77-.28-.08-.09-.15-.16-.2-.21.12,0,.28-.02.48-.17.47-.35.92-.43,1.29-.92.73-.97.28-1.68,1.72-2.05.29-.08.73.09,1.1,0,.53-.14.72-1.35,1.8-1.66.37-.1.81.06,1.21-.05.94-.25,2.74-1.24,3.22-2.11.04-.08.03-.19-.03-.25.18.18.09-1.16-.17-1.45.65.02,2.46.27,3.14-.04.98-.45,1.35-1.3,1.91-2.13.69-1.03,1.26-1.26,2.23-1.96.97-.71,1.42-1.29,1.76-1.92,0,0,0,0,.01-.01.15-.21.22-.38.29-.59.23-.5.47-1.05.89-1.74,1.35-2.22,4.56-1.65,6.11-3.72.44-.59.68-1.35,1.06-1.98.64-1.06,1.6-1.99,2.07-3.15.51-1.25.36-2.49,1.07-3.69.55-.92,1.11-1.86,1.64-2.83,1.15-2.13,2.05-2.61,1.53-5.12,0-.02,0-.03-.01-.05Z"/>
      <path class="cls-4" d="m76.14,6.85s-.01,0-.02,0h0s.01,0,.02,0Z"/>
      <path class="cls-4" d="m48.53,8.01s0,0,0,0c.02.06.02.05,0,0Z"/>
      <path class="cls-4" d="m73.9,16.06c-.35-.2-.74-.14-1.11-.21-.57-.11-.69-.29-1.02-.67-.06-.07-.13.02-.19.02h0c-.92.69-1.53,2.15-.52,2.57.3.13.76.05,1.07.06.77.04,1.25,0,1.88.47.52.39,1.39.68,2.04.66.31-.01.46-.06.47-.42.03-.69-.58-.75-1.05-.81-1-.14-.73-1.22-1.54-1.67Z"/>
      <path class="cls-4" d="m41.12,64.74c-.47-.31-1.35-.69-1.83-.22-.04.02-.07.04-.09.09-.03.05-.04.09-.03.13-.01.12.03.25.05.36.08.37.17.74.32,1.09.11.27.3.56.64.51.3-.05.54-.32.7-.56.16-.24.17-.34.47-.48.12-.06.24-.09.28-.24.08-.3-.29-.53-.5-.67Z"/>
      <path class="cls-4" d="m106.44,48.23c.04.16.09.33.14.53.1.39.16.72.21,1-.12-.51-.23-1.02-.36-1.53Zm-10.83-27.83s-.05-.07-.08-.08c-.09-.05-.18-.02-.24.06-.04.04-.07.11-.06.19.84,4.23,4.66,6.73,6.24,10.69,1.37,3.42,2,7.15,3.06,10.68,1.05,3.49,1.75,7.01,2.41,10.58.18.97.7,4.71,2.3,4.54.11-.01.21-.09.21-.21-.37-13.43-5.19-26.15-13.83-36.45Z"/>
      <path class="cls-4" d="m79.18,8.79c.52.34.88.87,1.4,1.21.49.31,1.24.56,1.44-.16.09-.32.17-.87-.01-1.14-.15-.21-.63-.39-.85-.52-.35-.21-.7-.41-1.05-.61-.05-.03-.1-.03-.15-.02h-.01c-.24.04-2.03,0-1.68.67.14.27.67.41.91.57Z"/>
      <path class="cls-1" d="m48.53,8.01s0,0,0,0c.02.06.02.05,0,0Z"/>
    </g>
  </g>
  <g id="Artboard_4" data-name="Artboard 4">
    <g>
      <path class="cls-4" d="m462.34,28.35c-1.98-1.78-4.14-3.19-6.5-4.27-2.29-1.08-4.72-1.85-7.27-2.36s-5.1-.7-7.78-.7-5.48.32-8.09.96c-2.61.64-5.03,1.53-7.27,2.8-2.29,1.21-4.27,2.74-5.93,4.59-1.72,1.85-3.06,3.95-4.02,6.37-.96,2.42-1.47,5.16-1.47,8.16s.51,5.42,1.4,7.46c.89,2.04,2.17,3.76,3.7,5.16,1.59,1.4,3.31,2.55,5.29,3.51,1.98.96,3.95,1.78,6.05,2.42,2.1.7,4.08,1.34,6.05,1.98,1.98.64,3.7,1.27,5.29,2.04s2.8,1.66,3.76,2.74c.89,1.08,1.4,2.42,1.4,4.02,0,1.21-.32,2.29-.96,3.25-.64.96-1.47,1.72-2.49,2.29-1.02.57-2.17,1.08-3.44,1.34-1.27.32-2.49.45-3.82.45-1.72,0-3.44-.25-5.1-.76s-3.19-1.27-4.65-2.29-2.68-2.17-3.76-3.57l-11.03,12.11c3.31,3.06,6.95,5.29,10.9,6.69,3.95,1.4,8.22,2.1,12.68,2.1,2.93,0,5.74-.32,8.41-.89,2.68-.64,5.16-1.53,7.39-2.74,2.29-1.21,4.27-2.74,5.93-4.59,1.66-1.85,3-4.02,3.95-6.5s1.4-5.29,1.4-8.41-.45-5.67-1.4-7.78c-.89-2.17-2.1-3.89-3.7-5.35-1.53-1.4-3.25-2.61-5.16-3.51-1.91-.96-3.89-1.72-5.93-2.36s-4.02-1.21-5.93-1.78-3.63-1.21-5.16-1.85c-1.53-.7-2.74-1.53-3.7-2.55-.89-1.02-1.4-2.36-1.4-3.89,0-1.34.38-2.42,1.02-3.38s1.53-1.66,2.55-2.23,2.17-1.02,3.38-1.27,2.36-.38,3.51-.38c1.27,0,2.61.19,4.02.51s2.74.83,4.02,1.53,2.36,1.59,3.19,2.61l10.64-11.66Zm-74.88,66.41l15.49.06V21.08h-15.49v73.67Zm-13.45-43.4h-27.47v14.28h12.62v11.41c-.96.57-2.17,1.08-3.57,1.59s-3.06.96-4.91,1.34c-1.85.32-3.89.51-6.12.57-3.31,0-6.31-.57-8.99-1.72s-4.97-2.68-6.88-4.72c-1.91-2.04-3.38-4.4-4.4-7.14-1.02-2.74-1.53-5.8-1.53-9.05s.51-6.31,1.53-9.05c1.02-2.74,2.49-5.16,4.4-7.14,1.91-2.04,4.21-3.57,6.88-4.72,2.68-1.08,5.67-1.66,8.99-1.72,2.61,0,4.91.25,6.95.76s3.89,1.27,5.54,2.23c1.66,1.02,3.19,2.23,4.52,3.7l10.9-11.92c-2.36-2.17-4.97-3.89-7.9-5.23-2.93-1.34-6.05-2.29-9.43-2.87s-6.88-.89-10.64-.89c-5.48,0-10.58.89-15.17,2.61-4.59,1.72-8.6,4.21-11.98,7.39-3.38,3.25-5.99,7.07-7.9,11.66-1.85,4.52-2.8,9.62-2.87,15.23.06,5.61.96,10.71,2.87,15.23,1.85,4.52,4.52,8.41,7.9,11.66s7.39,5.67,11.98,7.39c4.59,1.72,9.62,2.55,15.17,2.61,5.16,0,10.26-.51,15.17-1.59,4.97-1.08,9.69-2.8,14.28-5.16v-36.77h.06Zm-133.84,6.56c0-3.31.51-6.31,1.53-9.05,1.02-2.74,2.49-5.16,4.4-7.14,1.91-2.04,4.21-3.57,6.88-4.72,2.68-1.08,5.67-1.66,8.99-1.72,3.31,0,6.31.57,8.99,1.72,2.68,1.15,4.97,2.68,6.88,4.72,1.91,2.04,3.38,4.4,4.4,7.14,1.02,2.74,1.53,5.8,1.53,9.05s-.51,6.31-1.53,9.05c-1.02,2.74-2.49,5.16-4.4,7.14-1.91,2.04-4.21,3.57-6.88,4.72-2.68,1.08-5.67,1.66-8.99,1.72-3.31,0-6.31-.57-8.99-1.72-2.68-1.15-4.97-2.68-6.88-4.72-1.91-2.04-3.38-4.4-4.4-7.14-.96-2.74-1.47-5.74-1.53-9.05Zm-16.06,0c.06,5.61.96,10.71,2.87,15.23,1.85,4.52,4.52,8.41,7.9,11.66,3.38,3.25,7.39,5.67,11.98,7.39,4.59,1.72,9.69,2.55,15.17,2.61,5.48,0,10.58-.89,15.17-2.61,4.59-1.72,8.6-4.21,11.98-7.39,3.38-3.25,6.05-7.14,7.9-11.66,1.85-4.52,2.8-9.62,2.87-15.23,0-5.67-.96-10.71-2.87-15.23-1.85-4.52-4.46-8.41-7.9-11.66-3.38-3.25-7.39-5.67-11.98-7.39-4.59-1.72-9.69-2.55-15.17-2.61-5.48,0-10.58.89-15.17,2.61-4.59,1.72-8.6,4.21-11.98,7.39-3.38,3.25-5.99,7.07-7.9,11.66-1.91,4.52-2.8,9.56-2.87,15.23Zm-48.88,36.84h44.17v-14.21h-28.68V21.02h-15.49s0,73.74,0,73.74Z"/>
      <path class="cls-3" d="m636.07,94.76h15.49v-31.61l27.6-42.13h-18.46l-16.85,28.17-15.96-28.17h-19.41l27.6,42.13v31.61Zm-43.91-29.64h-17.14l8.54-21.8,8.6,21.8Zm-45.65,29.64h17.08l6.51-16.57h27.28l6.73,16.57h17.51l-32.05-73.74h-11.21l-31.85,73.74Zm-72.96,0h15.49v-51.62h.19l31.63,51.62h19.29V21.02h-15.49v50.67h-.19l-30.96-50.67h-19.9l-.07,72.08v1.66Z"/>
      <polygon class="cls-2" points="183.89 32.81 481.14 88.06 478.97 85.26 184.21 30.45 183.89 32.81"/>
      <polygon class="cls-2" points="482.41 87.43 646.08 63.72 645.69 61.36 482.03 85.07 482.41 87.43"/>
      <path class="cls-2" d="m481.59,82.39c2.17,0,3.95,1.78,3.95,3.95s-1.78,3.95-3.95,3.95-3.95-1.78-3.95-3.95,1.78-3.95,3.95-3.95Z"/>
      <path class="cls-2" d="m184.09,27.71c2.17,0,3.95,1.78,3.95,3.95s-1.78,3.95-3.95,3.95-3.95-1.78-3.95-3.95,1.78-3.95,3.95-3.95Z"/>
      <path class="cls-2" d="m645.69,58.43c2.17,0,3.95,1.78,3.95,3.95s-1.78,3.95-3.95,3.95-3.95-1.78-3.95-3.95,1.78-3.95,3.95-3.95Z"/>
      <path class="cls-4" d="m253.87,37.91c-.96-.06-1.47.13-1.59.51l-.06.7.25.45v2.17c-.13.25-.19.38-.19.45l.06.51-.06.45c.38.19.57.45.51.76l.06.57.25.19c0,.19,0,.32.13.32.06.06.13.13.13.13.06.13.06.19.13.19v.38c-.19.06-.25.13-.19.19l-.19.06c-.19.13-.25.19-.32.13l-.96-.06c-.19-.19-.32-.25-.45-.19-.51-.57-.89-.83-1.08-.76-.38,0-.7-.06-.89-.06h-.19v.51l.06.32v.64h-.25c-.25-.45-.45-.64-.45-.64-.57-.06-.76,0-.57.25s.25.45.25.51c.32.45.45.64.45.7.32.25.45.45.38.64v.25c.19.32.32.57.32.64.06.19.13.32.19.32l.13.19c-.06.13-.06.25,0,.32.06.32.13.45.19.51-.06,0-.06.13,0,.25-.06.25-.06.45,0,.45-.19.13-.19.25-.06.38l.06.7c.19.45.25.83.06,1.15l-.06.57c-.13.51-.13.83.06.96.19.25.38.45.64.51,0,.32.13.64.38.83.32.45.51.7.45.76.25.7.45,1.02.57,1.02.51.57.76.96.7,1.02.13.45.19.7.32.7l.32.64.06.32c0,.06.06.13.19.25,0,.06.19.19.64.51.19-.06.64.13,1.4.57.06.06.19.13.45.19.06,0,.19.06.25.13,0,.06.19.19.51.32.19.06.32.19.51.45v.96c-.13.06-.19.19-.19.45l-.19.19c-.19-.06-.25.19-.19.83.06.45.19.64.25.7.13.19.19.38.13.64-.06.51-.06.89,0,1.15,0,.25-.06.32-.13.38-.06.45-.06.7.06.76.06.38,0,.57-.19.57-.13.13-.38.25-.7.38-.19.19-.32.32-.32.45-.06.13-.06.19-.13.19-.25.38-.38.51-.32.51l-.25.25c-.25.06-.38.19-.45.32-.25.38-.38.51-.51.45-.45.19-.64.38-.45.51-.19.45-.32.64-.38.7-.57.19-.89.32-.83.51-.19.25-.19.38.06.32.38.06.64.13.7.19.45,0,.7.06.76.19.19.13.45.06.83-.19.7-.13,1.02.06,1.15.57.19.57.45.64.83.25.06-.57.32-.76.64-.7.51-.25.76-.57.76-.89.06-.76.19-1.02.38-.96.51-.83.96-1.21,1.4-1.02.32.06.45.06.51.13l.7.06.13-.25c.19.06.32.06.32-.06s.19-.32.51-.45c.06-.06.13-.19.25-.45,0-.19.13-.32.51-.32l.19-.13h.45l.06-.19c.83.06,1.27.06,1.34.06,0,.13,0,.25.13.32l.06.19c.32.06.45.19.32.32.13.06.19.13.25.13.06.13.13.19.19.19.13.06.19.13.25.13.51,0,.83,0,.83-.06q0,.06.06.06l.51.32c.32.25.51.45.51.57.19.19.32.38.45.45.25.19.32.32.25.32.38.13.51.19.57.32.32.19.51.32.64.32.45.25.64.45.64.57.32.25.51.45.64.45.51.64.7,1.02.64,1.21v.25c.32,0,.51-.06.51-.19.06-1.34-.25-2.17-.96-2.36l-.45-.19c-.38-.06-.51-.13-.45-.32l.13-.32.38-.19c.32-.19.51-.25.57-.25.13-.13.25-.19.25-.19l.19-.13c0-.19.06-.32.19-.25.06-.25.13-.38.19-.38.25-.57.25-.83,0-.96-.06-.25-.06-.38-.19-.38,0-.32-.06-.51-.13-.51v-.64c.13-.25.25-.51.25-.7,0-.51-.06-.83-.19-.96h-.06c0-.06.06-.13.19-.19,0-.13.25-.19.76-.13,0,.06.25.13.76.06.06-.06.32-.13.64-.13.57-.13.96-.45,1.21-.96l.32-.13c.13-.13.83-.13,1.91-.06.19,0,.32-.19.51-.38.13-.13.38-.64.83-1.66.25-.13.19-.45-.06-.89-.13.06-.45-.19-.83-.7q0-.06-.13-.06c0-.06-.19-.25-.64-.51,0-.13-.06-.19-.25-.32,0-.06-.19-.38-.64-.89,0-.25-.06-.45-.25-.57.06-.45,0-.7-.06-.76v-1.21c0-.13-.19-.25-.51-.32h-1.21c0-.06-.06-.06-.13-.13h-1.02c0-.06-.19-.06-.45-.06,0-.06-.19-.13-.57-.19,0-.32-.06-.57-.19-.76v-1.47l-.19-.25h-.83l-.25-.19c-.25-.19-.7-.06-1.21.19-.06.13-.19.13-.32,0-.13-.57-.13-.83-.06-.89.06-.25.06-.45.06-.64.06-.38.13-.57.19-.51-.06-.7-.06-1.08.06-1.08.13-.25.13-.45,0-.51.13-.45.19-.7.06-.89.19-.19.19-.32.19-.32.25-.51.32-.7.19-.7.06-.45.13-.64.25-.64,0-.51-.06-.89-.32-1.08-.38-.64-.7-.89-.96-.76-.19.25-.38.32-.51.25-.38.19-.57.32-.57.32-.32.06-.51.13-.51.25-.06.19-.13.25-.19.32-.06.25-.06.45,0,.51.06.19-.06.32-.25.32-.45-.64-.64-.96-.57-1.02-.57-.45-.83-.7-.7-.76-.25-.32-.45-.45-.51-.45-.51-.57-.7-.96-.7-1.02-.13-.06-.32-.06-.64,0-.64.06-.96-.13-.89-.57-.13-.45-.32-.7-.51-.83-.13.13-.25.13-.32,0-.38-.25-.64-.19-.64.19-.25.19-.38.32-.38.45-.32.19-.45.38-.32.57-.32.38-.51.57-.57.51-.13-.19-.13-.25-.13-.32-.06-.13-.06-.25-.13-.25-.06-.25-.13-.45-.19-.45-.13-.13-.25-.19-.32-.13-.13-.13-.25-.13-.32-.13-.06-.25-.19-.38-.38-.32-.38-.32-.45-.45-.32-.57l.45-.32c.19-.13.25-.13.32-.06.06,0,.13,0,.19-.06h.19c.13,0,.25-.06.19-.13.06-.13.25-.13.51-.13l.45-.38c.06-.19.06-.32,0-.38-.13-.38-.19-.57-.19-.57-.19-.19-.25-.38-.25-.45-.25-.38-.32-.57-.25-.57-.13-.64-.25-.89-.38-.76-.13-.45-.38-.57-.76-.51l-1.59-.06c-.13-.13-.25-.13-.32-.06l-.19-.06-1.02-.06c-.25-.13-.45-.13-.57-.06h-.45c-.13-.06-.25-.13-.38-.13-.51-.25-.76-.38-.83-.51Z"/>
    </g>
  </g>
</svg>